<?xml version="1.0" standalone="no"?>
<!DOCTYPE svg PUBLIC "-//W3C//DTD SVG 1.1//EN" "http://www.w3.org/Graphics/SVG/1.1/DTD/svg11.dtd" >
<svg xmlns="http://www.w3.org/2000/svg">
<metadata></metadata>
<defs>
<font id="apolonia_nova_otbold" horiz-adv-x="1009" >
<font-face units-per-em="2048" ascent="1536" descent="-512" />
<missing-glyph horiz-adv-x="471" />
<glyph horiz-adv-x="2048" />
<glyph horiz-adv-x="2048" />
<glyph unicode="&#xd;" horiz-adv-x="2048" />
<glyph unicode=" "  horiz-adv-x="471" />
<glyph unicode="&#x09;" horiz-adv-x="471" />
<glyph unicode="&#xa0;" horiz-adv-x="471" />
<glyph unicode="!" horiz-adv-x="528" d="M96 1341h348l-26 -866h-293zM102 135q0 75 46.5 124.5t121.5 49.5t119.5 -49.5t44.5 -124.5q0 -62 -48.5 -108.5t-115.5 -46.5q-74 0 -121 45.5t-47 109.5z" />
<glyph unicode="&#x22;" horiz-adv-x="864" d="M121 864l41 477h291l-91 -477h-241zM483 864l41 477h293l-92 -477h-242z" />
<glyph unicode="#" horiz-adv-x="1122" d="M70 393v207h184l22 125h-206v207h245l64 352h231l-63 -352h145l64 352h231l-63 -352h135v-207h-174l-23 -125h197v-207h-234l-69 -393h-232l70 393h-145l-70 -393h-232l70 393h-147zM485 600h146l22 125h-145z" />
<glyph unicode="$" horiz-adv-x="1015" d="M48 915q0 66 26 144q37 112 132 178t218 66h27v233h124v-240l246 -16l-20 -270q-39 1 -81 4t-85 7t-60 5v-229q42 -14 61.5 -21t61 -23.5t63 -28.5t56.5 -33.5t53.5 -41t41.5 -48.5t34 -59.5t17.5 -70.5t3.5 -84q-6 -87 -42 -161t-91.5 -123t-121.5 -79.5t-137 -39.5 v-271h-124v269q-129 5 -187 8l-194 10l10 272q67 -4 144.5 -10.5t126 -10t75.5 -3.5h25v276q-160 67 -223 107q-180 112 -180 284zM379.5 924q4.5 -26 21.5 -43.5t50 -34.5v176q-45 -9 -56 -41q-20 -31 -15.5 -57zM575 274q70 34 76 93q5 52 -76 100v-193z" />
<glyph unicode="%" horiz-adv-x="1636" d="M33 993q0 162 93 250.5t253 93.5q168 5 261 -75.5t93 -241.5q0 -166 -93.5 -256.5t-260.5 -93.5q-165 -2 -255.5 78.5t-90.5 244.5zM287 1012q0 -54 24 -82t70 -25q104 3 104 115q0 53 -27 78t-75 22q-50 -2 -73 -27.5t-23 -80.5zM322 2l690 1282h284l-688 -1282h-286z M901 297q0 164 92.5 252.5t253.5 93.5q168 5 261.5 -75.5t93.5 -241.5q0 -167 -93.5 -258.5t-261.5 -94.5q-165 -2 -255.5 79t-90.5 245zM1153 315q0 -109 94 -106q105 6 105 115q0 106 -105 100q-94 -3 -94 -109z" />
<glyph unicode="&#x26;" horiz-adv-x="1468" d="M59 330q0 255 269 366q-205 119 -205 283q0 104 60.5 179t157.5 110t216 35q195 0 308.5 -85t113.5 -214q0 -87 -59.5 -157t-161.5 -118q84 -33 194 -115l144 193l190 -145l-151 -209q105 -108 191.5 -229.5t133.5 -223.5h-336q-6 18 -66 108.5t-83 118.5 q-47 -56 -87 -95t-94 -76.5t-119 -56.5t-140 -19q-243 0 -359.5 93.5t-116.5 256.5zM428 385q0 -57 33.5 -96t95.5 -39q33 0 66.5 13t55.5 27.5t50.5 43t38 40t31.5 38.5q-92 84 -256 161q-54 -29 -84.5 -80t-30.5 -108zM446 973q0 -99 111 -123q30 11 63 39t33 61 q0 59 -26.5 96t-79.5 37q-49 0 -75 -29.5t-26 -80.5z" />
<glyph unicode="'" horiz-adv-x="423" d="M70 920l8 423h332l-86 -423h-254z" />
<glyph unicode="(" horiz-adv-x="720" d="M92 547q0 135 28 264.5t82 245t138 211t190 155.5l187 -176q-151 -114 -223 -299t-72 -401t72 -401.5t223 -299.5l-187 -176q-140 80 -240.5 220.5t-149 308t-48.5 348.5z" />
<glyph unicode=")" horiz-adv-x="712" d="M10 -154q151 114 223 299.5t72 401.5t-72 401t-223 299l187 176q106 -60 190 -155.5t138 -211t82 -245t28 -264.5q0 -181 -48.5 -348.5t-149 -308t-240.5 -220.5z" />
<glyph unicode="*" horiz-adv-x="827" d="M51 930v149l221 -4v15l-122 186l145 78l121 -195h12l104 195l148 -82l-131 -185v-10l231 8l-2 -155l-227 8v-8l125 -164l-152 -100l-112 184h-13l-118 -184l-138 98l125 166l4 4z" />
<glyph unicode="+" horiz-adv-x="1050" d="M53 512v270h332v334h279v-334h335v-270h-335v-336h-279v336h-332z" />
<glyph unicode="," horiz-adv-x="563" d="M25 -289q22 56 44.5 122t34.5 105.5t37 125t33 112.5h352q-107 -249 -233 -465h-268z" />
<glyph unicode="-" horiz-adv-x="729" d="M125 377v268h475v-268h-475z" />
<glyph unicode="." horiz-adv-x="466" d="M61 135q0 75 46.5 124.5t121.5 49.5t119.5 -49.5t44.5 -124.5q0 -62 -48.5 -108.5t-115.5 -46.5q-74 0 -121 45.5t-47 109.5z" />
<glyph unicode="/" horiz-adv-x="786" d="M2 -86l459 1458h323l-460 -1458h-322z" />
<glyph unicode="0" horiz-adv-x="1202" d="M74 645q0 137 34.5 255.5t99.5 209t168.5 142t233.5 51.5q127 0 227 -50t163.5 -139.5t96.5 -208.5t33 -260q0 -137 -33.5 -254.5t-97 -207t-165.5 -140.5t-230 -51q-104 0 -191 33.5t-149 93t-105 141.5t-64 179t-21 206zM383 659q0 -389 219 -389q225 0 225 389 q0 390 -225 390q-78 0 -128.5 -53t-70.5 -137t-20 -200z" />
<glyph unicode="1" horiz-adv-x="681" d="M0 1083l305 183h234v-1268h-308v920l-178 -72z" />
<glyph unicode="2" horiz-adv-x="901" d="M25 2v223q8 10 47.5 56.5t103 122.5t113.5 135q2 2 23 26.5t28.5 33.5t29 35t31.5 39.5t29 39.5t29 42.5t23.5 40.5t20.5 41.5t12 36.5t5 35q0 54 -34 84.5t-85 30.5q-44 0 -107 -13.5t-118.5 -29.5t-69.5 -18l-43 264q97 24 140.5 34.5t139.5 26t167 15.5 q346 0 346 -347q0 -96 -85 -232.5t-335 -442.5h408v-279h-819z" />
<glyph unicode="3" horiz-adv-x="989" d="M35 4l35 289q165 -23 249 -23q275 0 275 152q0 31 -18 52.5t-45 33.5t-72.5 19t-85.5 8.5t-99 1.5h-112l10 270q309 47 309 156q0 67 -100 67q-25 0 -54.5 -2.5t-52.5 -6t-53 -10t-46 -10t-43.5 -10.5t-33.5 -8l-39 260q7 1 69 16t96.5 22t96.5 14.5t115 7.5 q189 0 285 -73t96 -194q0 -43 -10.5 -83.5t-34.5 -83t-71 -78t-113 -56.5q97 -8 168.5 -39.5t111.5 -79t59 -101t19 -114.5q0 -57 -17.5 -114t-58.5 -113.5t-101.5 -99.5t-153.5 -70t-207 -27q-165 0 -373 27z" />
<glyph unicode="4" horiz-adv-x="1060" d="M43 311v215l500 756h381v-690h120v-281h-120v-311h-303v311h-578zM406 592h215v379z" />
<glyph unicode="5" horiz-adv-x="985" d="M49 4l31 287q166 -20 240 -20q302 -2 301 159q0 43 -25.5 72.5t-69 43.5t-101 21.5t-121.5 7t-130 -0.5q-59 -1 -88 -1l61 711h697v-272h-436l-13 -166q72 0 127 -3.5t115.5 -13.5t104.5 -28t85.5 -48.5t67.5 -72t41.5 -102t15.5 -136.5q0 -93 -36 -176.5t-103.5 -148.5 t-173.5 -103.5t-236 -38.5q-169 0 -354 29z" />
<glyph unicode="6" horiz-adv-x="1126" d="M100 541q-1 62 4.5 128.5t21 142t40 144.5t64.5 133t90.5 111t122 75t155.5 28q129 0 317 -48l-55 -260q-19 4 -66 16t-69.5 17.5t-61.5 10t-63 1t-52 -15.5t-48 -35q-39 -44 -52 -78.5t-22 -97.5q85 25 174 29.5t174.5 -17t151 -68t103.5 -133t32 -202.5 q-10 -201 -140 -318.5t-333 -123.5q-109 -4 -194 25.5t-138.5 81t-88.5 127t-49.5 154.5t-17.5 173zM405.5 479q2.5 -29 6 -59.5t16.5 -59.5t31 -52.5t49.5 -37.5t71.5 -14q48 1 80 15t47 41t20.5 52t7.5 62q5 62 -41.5 112t-124.5 46q-25 -2 -44.5 -5.5t-38 -10 t-27.5 -10.5t-28 -14.5t-25 -13.5q-3 -22 -0.5 -51z" />
<glyph unicode="7" horiz-adv-x="894" d="M18 1004v278l873 2v-221l-475 -1063h-353l482 1004h-527z" />
<glyph unicode="8" horiz-adv-x="1026" d="M23 330q0 255 268 366q-205 119 -205 283q0 104 60.5 179t157.5 110t216 35q201 0 315.5 -90.5t106.5 -225.5q-11 -157 -221 -258q137 -59 214.5 -156.5t68.5 -226.5q-9 -115 -76 -199t-171 -125.5t-233 -41.5q-127 0 -239.5 39.5t-187 121t-74.5 189.5zM393 414 q-10 -65 23 -114.5t104 -49.5q70 0 104.5 42t34.5 99q0 105 -153 182q-46 -24 -76.5 -67.5t-36.5 -91.5zM410 973q3 -101 110 -123q30 11 63.5 40t32.5 62q0 59 -26.5 95t-79.5 36q-48 0 -74 -29.5t-26 -80.5z" />
<glyph unicode="9" horiz-adv-x="1089" d="M68 868q4 196 126 312.5t322 122.5q109 4 196 -26.5t143.5 -84.5t95 -130t55.5 -156t20 -169q1 -64 -3.5 -128t-19 -140.5t-39 -143t-66.5 -131t-96.5 -110.5t-134 -74.5t-175.5 -29.5q-39 -1 -77 1.5t-83.5 9.5t-70 11t-80.5 15t-70 14l59 288q182 -51 291 -53 q62 -1 103.5 13.5t65 46t34 69.5t16.5 97q-71 -23 -143.5 -29t-141.5 4.5t-129.5 41.5t-105 78.5t-69.5 119.5t-23 161zM385 881q0 -59 44.5 -110.5t119.5 -45.5q18 1 31.5 2.5t26.5 4.5t20 4.5t19.5 6.5t16 6.5t19.5 9t20 9.5q0 29 2 65.5t-7.5 76.5t-25 73.5t-49 55 t-79.5 22.5q-48 0 -81 -17t-49 -46t-22 -57t-6 -60z" />
<glyph unicode=":" horiz-adv-x="600" d="M141 135q0 75 46.5 124.5t121.5 49.5t119.5 -49.5t44.5 -124.5q0 -62 -48.5 -108.5t-115.5 -46.5q-74 0 -121 45.5t-47 109.5zM141 793q0 75 46.5 124.5t121.5 49.5t119.5 -49.5t44.5 -124.5q0 -62 -48.5 -109t-115.5 -47q-74 0 -121 46t-47 110z" />
<glyph unicode=";" horiz-adv-x="563" d="M-16 -289q71 166 149 465h318q-39 -113 -57.5 -163t-58.5 -139t-85 -163h-266zM135 793q0 75 45.5 124.5t120.5 49.5t120.5 -49.5t45.5 -124.5q0 -62 -49.5 -109t-116.5 -47q-74 0 -120 46t-46 110z" />
<glyph unicode="&#x3c;" horiz-adv-x="1191" d="M94 514v260l975 498l-4 -387l-490 -246l490 -248v-373z" />
<glyph unicode="=" horiz-adv-x="1044" d="M100 338v272h850v-272h-850zM100 778v273h850v-273h-850z" />
<glyph unicode="&#x3e;" horiz-adv-x="1130" d="M98 18v373l490 248l-490 246v387l971 -498v-260z" />
<glyph unicode="?" horiz-adv-x="905" d="M45 1303q13 3 90.5 22t106.5 25t91 15t120 11q150 5 263.5 -51.5t143.5 -165.5q10 -39 10.5 -76.5t-7 -70.5t-23.5 -66t-35.5 -60.5t-47 -57.5t-53.5 -54t-59 -51q-86 -73 -106.5 -136t-18.5 -196l-311 4q-4 104 9.5 189t37.5 139.5t54 97t60.5 69.5t55.5 48.5t40 43 t13 44.5q-4 44 -64.5 56t-146 -4t-172.5 -52zM215 135q0 75 46.5 124.5t121.5 49.5t119.5 -49.5t44.5 -124.5q0 -62 -48.5 -108.5t-115.5 -46.5q-74 0 -121 45.5t-47 109.5z" />
<glyph unicode="@" horiz-adv-x="1681" d="M86 487q0 149 60 284t164.5 235.5t256.5 159.5t326 59q136 0 265 -44t230 -120.5t162.5 -190t61.5 -243.5q0 -58 -17.5 -122t-53 -125.5t-83 -111.5t-114 -80.5t-140.5 -31.5q-108 3 -200 86q-97 -90 -187 -90q-106 1 -184.5 52t-116 127.5t-37.5 164.5q0 71 20 133 t61.5 114t114 82.5t169.5 30.5q82 0 166 -41l192 -55v-283q0 -48 3.5 -66.5t10 -22t27.5 -3.5q32 -2 69 69t36 156q-2 165 -129.5 276t-319.5 111q-115 0 -215 -42t-168.5 -111.5t-107.5 -160.5t-39 -189q0 -145 60.5 -263t175 -188t263.5 -70q160 0 314 74l20 -242 q-154 -63 -340 -63q-174 0 -321 58.5t-246 159t-154 236.5t-55 291zM776 506q0 -27 3 -50t10.5 -47t24 -37t40.5 -12q53 3 86 89v167q-31 40 -88 33q-22 -1 -37 -10t-22.5 -19.5t-11.5 -32.5t-4.5 -36.5t-0.5 -44.5z" />
<glyph unicode="A" horiz-adv-x="1443" d="M0 0l575 1346h367l492 -1346h-377l-117 356h-424l-139 -356h-377zM604 629h264l-120 391h-7z" />
<glyph unicode="B" horiz-adv-x="1300" d="M152 1343q340 16 657 25h14q137 0 218 -76q85 -80 85 -205q0 -110 -82 -194t-206 -125v-6h9q185 0 291 -77q107 -78 107 -258q-1 -111 -41 -197q-40 -84 -110 -133t-160.5 -73t-200.5 -24h-579zM496 268l151 -2h4q91 0 151 40q60 41 66 100q2 15 2 28q0 21 -5 39 q-8 29 -23 47t-41.5 29.5t-52.5 16.5t-62 7q-24 1 -45 1h-20q-28 -1 -65.5 -2t-59.5 -1v-303zM500 866q12 0 23 -1q37 -1 71 5q45 6 87 23t68 50t27 79q0 40 -39 60t-100 20h-19q-26 0 -58 -2q-46 -2 -60 -2v-232z" />
<glyph unicode="C" horiz-adv-x="1050" d="M80 690q0 187 74 341.5t218 248.5q139 91 318 90h12q29 0 55 -0.5t44.5 -1.5t42.5 -3.5t35.5 -3.5t38.5 -5t35.5 -5.5t43 -7.5t45.5 -8l-47 -270q-146 31 -224 31h-9q-81 -2 -143 -25t-101 -60t-63 -90.5t-33.5 -111t-9.5 -127.5q0 -75 18.5 -142.5t57.5 -127.5 q38 -60 108 -94q69 -34 161 -33h5q120 0 242 32l45 -282q-143 -55 -336 -55q-158 0 -280.5 52.5t-198.5 148t-115 224t-39 285.5z" />
<glyph unicode="D" horiz-adv-x="1361" d="M131 1341l524 27q22 1 43 1q280 -1 435 -161q167 -172 167 -495q0 -131 -52 -258t-142.5 -226.5t-222.5 -162t-281 -66.5q-68 -2 -185.5 -2t-283.5 2zM459 293q83 -3 122 -3q20 0 29 1q89 6 159 41.5t114.5 93t68.5 128.5t27 153v11q0 172 -90 279q-93 110 -273 111 q-35 0 -86 -2.5t-69 -3.5z" />
<glyph unicode="E" horiz-adv-x="983" d="M133 4v1339h782v-272h-448v-229h424v-271h-428l-2 -286h463v-277z" />
<glyph unicode="F" horiz-adv-x="925" d="M133 0v1343h764v-260h-436v-270h424v-260h-424v-553h-328z" />
<glyph unicode="G" horiz-adv-x="1331" d="M82 676q0 157 55 289t149.5 220t222 136.5t271.5 48.5q47 0 83.5 -1t78.5 -3.5t70.5 -5t93 -8t111.5 -9.5l-17 -270q-50 4 -113 9.5t-94.5 8.5t-69.5 5t-69 2q-205 0 -318.5 -116t-113.5 -308q0 -86 23.5 -162t70.5 -138t126 -94q64 -26 143 -26q19 0 40 2q13 1 39.5 1.5 t57.5 2.5v404l309 -2l4 -654q-304 -35 -451 -35h-16q-339 6 -512.5 189.5t-173.5 513.5z" />
<glyph unicode="H" horiz-adv-x="1308" d="M133 0v1343h338v-485h373v483h332v-1341h-332v555h-373v-555h-338z" />
<glyph unicode="I" horiz-adv-x="589" d="M133 0v1341h324v-1341h-324z" />
<glyph unicode="J" horiz-adv-x="589" d="M-70 -166q49 34 84.5 72.5t57.5 87t35 89t18.5 104.5t6.5 106t1 119v929h324v-960q0 -191 -36.5 -330.5t-105 -238t-182.5 -191.5z" />
<glyph unicode="K" horiz-adv-x="1388" d="M133 0v1341h356v-561l394 561h442l-516 -561q92 -3 146.5 -40.5t97.5 -112.5l333 -627h-403l-221 442q-40 88 -121 139.5t-152 53.5v-635h-356z" />
<glyph unicode="L" horiz-adv-x="907" d="M133 0v1341h348v-1052h424v-289h-772z" />
<glyph unicode="M" horiz-adv-x="1796" d="M39 0l154 1341h399l317 -796h11l335 796h392l122 -1341h-327l-66 903l-356 -903h-234l-344 895l-82 -895h-321z" />
<glyph unicode="N" horiz-adv-x="1445" d="M133 0v1339l262 7l617 -824h6v817h295v-1339h-275l-598 776h-6v-776h-301z" />
<glyph unicode="O" horiz-adv-x="1427" d="M82 672q0 154 40.5 281.5t118.5 220.5t199 144.5t275 51.5q203 0 347 -90t214 -245.5t70 -362.5q0 -208 -70 -362.5t-213.5 -242t-347.5 -87.5q-306 0 -469.5 187.5t-163.5 504.5zM436 678q0 -200 65 -304t216 -104q148 0 209 103.5t61 304.5t-61.5 307.5t-208.5 106.5 q-77 0 -132.5 -29t-87.5 -85t-46.5 -129.5t-14.5 -170.5z" />
<glyph unicode="P" horiz-adv-x="1116" d="M129 0v1343l565 25l46 2q87 0 158 -22q89 -28 145 -102q55 -73 55 -183q0 -97 -19 -172t-48 -126.5t-77.5 -91.5t-95.5 -64t-116 -42.5t-124 -29t-134 -22.5q-7 -1 -11.5 -1.5t-9.5 -1.5v-512h-334zM463 817q128 18 169 32q112 39 116 142q0 30 -5.5 50.5t-19.5 31.5 t-29 16q-14 5 -38 5h-5q-28 0 -51.5 -2.5t-64.5 -6.5t-72 -6v-262z" />
<glyph unicode="Q" horiz-adv-x="1427" d="M82 672q0 154 40.5 281.5t118.5 220.5t199 144.5t275 51.5q203 0 347 -90t214 -245.5t70 -362.5q0 -190 -61 -337.5t-179 -236.5l393 -366h-450l-271 250q-20 -2 -63 -2q-306 0 -469.5 187.5t-163.5 504.5zM436 678q0 -200 65 -304t216 -104q148 0 209 103.5t61 304.5 t-61.5 307.5t-208.5 106.5q-77 0 -132.5 -29t-87.5 -85t-46.5 -129.5t-14.5 -170.5z" />
<glyph unicode="R" horiz-adv-x="1292" d="M133 0v1343q249 15 469 23q132 4 202 4q47 0 66 -2q57 -6 100.5 -16t86.5 -31.5t70.5 -53.5t44.5 -83q16 -48 16 -111v-8q-3 -171 -68 -267t-182 -141q69 -47 92 -94l264 -563h-391l-229 504q-20 46 -63 59q-35 11 -92 11q-13 0 -27 -1l-5 -573h-354zM489 838 q41 3 69.5 5.5t71.5 9.5t72 19t57.5 29.5t43 45.5t14.5 63q0 70 -78 84q-35 6 -78 7q-53 0 -119 -10q-35 -3 -53 -4v-249z" />
<glyph unicode="S" horiz-adv-x="1048" d="M54 906q-3 19 -3 40q0 70 29 162q40 119 139.5 187.5t231.5 68.5q47 0 430 -18l-25 -287q-49 2 -146.5 9t-129.5 7q-76 0 -108 -8.5t-46 -38.5q-16 -29 -16 -54q0 -42 46 -72q38 -26 169 -72q166 -59 242 -112q152 -105 151 -285v-23q-4 -99 -47 -182t-109 -135.5 t-144.5 -82t-158.5 -30.5q-172 0 -481 16l8 291q55 -4 146 -11.5t140.5 -10.5t80.5 -3q195 0 202 119v6q0 39 -37 71q-40 36 -103.5 62.5t-139 61.5t-143.5 75t-117 103.5t-61 145.5z" />
<glyph unicode="T" horiz-adv-x="1052" d="M8 1040v303h1039v-303h-345v-1040h-350v1040h-344z" />
<glyph unicode="U" horiz-adv-x="1437" d="M123 692v649l352 -2v-555q0 -93 14 -176.5t44 -156.5t84.5 -116.5t127.5 -43.5q22 0 68 -1t81.5 -1t59.5 2v1050l351 2v-1345q-429 -18 -580 -18q-129 0 -232 39t-171 105t-113.5 158t-65.5 194t-20 216z" />
<glyph unicode="V" horiz-adv-x="1480" d="M10 1341h371l348 -917h8l348 917h355l-547 -1341h-369z" />
<glyph unicode="W" horiz-adv-x="2023" d="M0 1339h348l215 -831h8l287 838h326l262 -842h8l207 835h350l-428 -1339h-309l-277 817h-8l-295 -817h-299z" />
<glyph unicode="X" horiz-adv-x="1300" d="M-2 0l461 705l-396 636h383l211 -333l220 333h358l-391 -624l456 -717h-403l-250 401l-252 -401h-397z" />
<glyph unicode="Y" horiz-adv-x="1269" d="M2 1341h387l246 -454h12l250 454h369l-453 -757v-584h-360v578z" />
<glyph unicode="Z" horiz-adv-x="1013" d="M10 0v57l525 1006h-441v278h903v-32l-497 -1014h504l-3 -295h-991z" />
<glyph unicode="[" horiz-adv-x="671" d="M133 -330v1774h539v-307h-195v-1166h195v-301h-539z" />
<glyph unicode="\" horiz-adv-x="786" d="M2 1372h326l458 -1458h-323z" />
<glyph unicode="]" horiz-adv-x="673" d="M4 -29h193v1166h-193v307h539v-1774h-539v301z" />
<glyph unicode="^" horiz-adv-x="1267" d="M2 309l490 955h282l488 -953h-402l-227 557l-262 -559h-369z" />
<glyph unicode="_" horiz-adv-x="999" d="M-4 -37h1008v-274h-1008v274z" />
<glyph unicode="`" horiz-adv-x="512" d="M25 1325l325 47l127 -328l-250 -22z" />
<glyph unicode="a" horiz-adv-x="1017" d="M59 258v7q-1 66 17 119q18 56 51.5 92.5t78 64.5t94.5 41q50 14 104 22q45 7 90 6h15q51 -2 97 -2q0 50 -9 69t-48 38q-26 15 -76 15q-11 0 -23 -1q-67 -4 -136 -18.5t-128 -34.5l-26 237q197 54 352 54q221 0 312 -86t91 -252v-443q0 -10 -1 -45t-0.5 -50.5t6 -42 t16.5 -48.5h-277q-11 12 -17.5 25.5t-11.5 31.5t-9 27q-30 -17 -71 -44t-58 -35.5t-51 -16.5t-81 -8q-138 0 -218 74.5t-83 203.5zM389 315q0 -48 26 -60q18 -8 51 -8q14 0 30 1q59 4 110 49v88q-12 0 -47.5 2t-56.5 2h-15q-98 0 -98 -74z" />
<glyph unicode="b" horiz-adv-x="1046" d="M102 0v1389h304v-484q7 3 27 12t28 12.5t25 10.5t27 9.5t24 6.5t26.5 5.5t24.5 1.5q89 0 158 -25.5t113.5 -69.5t73 -107t40.5 -132.5t12 -151.5q0 -214 -147 -355.5t-385 -141.5q-56 0 -117 3.5t-129 9t-105 7.5zM406 233q135 0 159 21q55 41 73.5 99.5t18.5 144.5 q0 43 -4 75.5t-15 67t-36 53.5t-63 19q-64 0 -133 -31v-449z" />
<glyph unicode="c" horiz-adv-x="792" d="M61 467q0 227 125.5 363.5t366.5 136.5q93 0 205 -37l-39 -250q-86 27 -144 27q-89 0 -138.5 -58.5t-49.5 -175.5q0 -93 44 -149t120 -56q67 0 166 47l71 -252q-184 -83 -331 -83q-83 0 -153.5 28.5t-125.5 86t-86 153t-31 219.5z" />
<glyph unicode="d" horiz-adv-x="1089" d="M86 459q0 128 50 243t147 190t219 75q24 0 49 -3t41 -6t46.5 -10t47.5 -10v451h301v-1280q0 -43 3.5 -59t23.5 -50h-293q-3 -1 -11 9.5t-15.5 31.5t-8.5 43q-5 -4 -28 -21t-31 -22t-28.5 -18t-33.5 -18t-33.5 -12.5t-41.5 -10t-44 -2.5q-86 0 -156 42.5t-113.5 112 t-67 153.5t-23.5 171zM422 467q0 -115 28.5 -160t100.5 -45q11 0 21 2t16.5 3.5t18.5 8.5t18.5 10.5t26 17t30.5 20.5v383q-98 12 -113 12q-147 0 -147 -252z" />
<glyph unicode="e" horiz-adv-x="968" d="M61 457q0 104 25 192t77.5 161t144.5 115t216 42q166 0 276.5 -97.5t110.5 -246.5q0 -113 -78.5 -177.5t-197.5 -64.5q-1 0 -5.5 -0.5t-17.5 -1t-36.5 -1t-70.5 -1t-110 -0.5q0 -53 46.5 -94t142.5 -41t223 67l72 -241q-158 -88 -367 -88q-208 0 -329.5 129.5 t-121.5 347.5zM397 586l148 6q37 0 58.5 18.5t21.5 44.5q0 27 -25 46.5t-70 19.5q-4 0 -12 -1t-12 -1q-38 0 -62.5 -17.5t-33.5 -45t-11 -42t-2 -28.5z" />
<glyph unicode="f" horiz-adv-x="565" d="M2 713v233h131v170q0 117 95.5 193.5t244.5 76.5q67 0 143 -18l-36 -258q-38 6 -72 6t-53 -9.5t-23 -19t-4 -24.5q0 -51 1 -65t1 -52h133v-233h-129v-713h-301v713h-131z" />
<glyph unicode="g" horiz-adv-x="1058" d="M61 457q0 146 65.5 274.5t178.5 183.5q57 28 113.5 40t144.5 12q54 0 197 -21h198v-946q0 -247 -104 -366t-297 -119t-358 84l73 256q88 -54 207 -54q81 0 125.5 41.5t44.5 147.5v73q-115 -83 -241 -83q-103 0 -184 72t-122 180t-41 225zM397 479q0 -34 5 -69.5 t17.5 -74.5t38 -64t60.5 -25q51 0 131 59v418q-6 2 -18 2q-111 0 -172.5 -56.5t-61.5 -189.5z" />
<glyph unicode="h" horiz-adv-x="1071" d="M102 0v1389h301v-545q59 68 121 95.5t152 27.5q143 0 218 -81t75 -220v-666h-303v514q0 50 -2.5 79t-10.5 57.5t-25.5 41t-45.5 13.5h-3l-77 -26q-40 -27 -99 -89v-590h-301z" />
<glyph unicode="i" horiz-adv-x="509" d="M90 1233q0 75 45.5 124.5t120.5 49.5t120.5 -49.5t45.5 -124.5q0 -62 -49.5 -109t-116.5 -47q-74 0 -120 46t-46 110zM102 0v946h306v-946h-306z" />
<glyph unicode="j" horiz-adv-x="507" d="M-35 -373q137 132 137 414v905h304v-905q0 -182 -46 -309.5t-167 -227.5zM88 1233q0 75 46.5 124.5t121.5 49.5t119.5 -49.5t44.5 -124.5q0 -62 -48.5 -109t-115.5 -47q-74 0 -121 46t-47 110z" />
<glyph unicode="k" horiz-adv-x="1028" d="M102 0v1389h301v-908q17 21 33 44t29 41.5t29 44.5t26 42t26.5 46t24 44t25.5 49t24 47.5t27 53t27 53.5h360q-147 -188 -313 -356q80 -28 139 -109q41 -54 61 -102.5t33 -114.5q5 -20 8.5 -70.5t15.5 -98.5t40 -95h-346q-23 36 -32 75t-10 89.5t-3 62.5 q-11 71 -27.5 113.5t-58.5 77.5q-43 40 -138 57v-475h-301z" />
<glyph unicode="l" horiz-adv-x="505" d="M102 223v1166h301v-1164q0 -50 1.5 -77.5t11 -69.5t28.5 -78h-301q-19 35 -28.5 77t-11 69.5t-1.5 76.5z" />
<glyph unicode="m" horiz-adv-x="1662" d="M82 946h283q13 -21 19.5 -39.5t8 -29.5t4.5 -39q19 13 61 43.5t64.5 44.5t63.5 27.5t86 13.5q93 0 158.5 -30t113.5 -101q18 12 67 47t70 46.5t66.5 24.5t97.5 13q153 0 234.5 -82t81.5 -244v-641h-299v477q0 48 -1.5 76t-8 60.5t-19 49t-35.5 28t-57 11.5 q-21 0 -39.5 -6t-30 -11.5t-31.5 -24.5t-28.5 -27.5t-34.5 -38.5q6 -30 6 -117v-477h-301v481q0 57 -4 93t-15.5 67.5t-35 46t-60.5 14.5q-13 0 -24.5 -2.5t-20.5 -4.5t-21 -9.5t-17.5 -11t-19.5 -16.5t-18 -17l-21 -21l-22 -22v-598h-301v725q0 147 -20 221z" />
<glyph unicode="n" horiz-adv-x="1110" d="M82 946h289q8 -15 19.5 -53t12.5 -53q83 64 150 96q65 32 125 31h4q105 -3 166.5 -32.5t105.5 -98.5q54 -89 54 -252v-584h-308v492q0 112 -27.5 161t-80.5 49h-4q-38 0 -90 -34q-56 -36 -88 -84v-584h-308v739q0 137 -20 207z" />
<glyph unicode="o" horiz-adv-x="1085" d="M61 459q0 238 130.5 370t349.5 138h22q211 0 333 -113q128 -119 128 -358q0 -244 -127.5 -377.5t-355.5 -138.5h-7q-221 0 -346 118q-127 120 -127 361zM401 471q1 -124 37 -186q35 -60 101 -60h4q76 3 116.5 69t40.5 185q0 246 -145 246h-10q-67 -2 -105.5 -69 t-38.5 -185z" />
<glyph unicode="p" horiz-adv-x="1064" d="M80 946h293q28 -38 35 -104q80 63 141.5 94t128.5 31q106 0 177.5 -63t102.5 -165t31 -239q0 -147 -46 -264t-137.5 -186.5t-215.5 -69.5q-52 0 -110.5 8.5t-73.5 9.5v-463h-304v1278v17v17t-0.5 15.5t-1 17t-2.5 15.5t-4 17t-5.5 16t-8.5 18zM406 258q51 -31 102 -37 q77 0 116.5 71.5t39.5 180.5q0 107 -35 168t-88 61q-68 0 -135 -88v-356z" />
<glyph unicode="q" horiz-adv-x="1046" d="M61 457q0 146 65.5 274.5t178.5 183.5q57 28 113.5 40t144.5 12q67 0 230 -25l151 4v-1399h-303v510q-113 -77 -233 -77q-103 0 -184 72t-122 180t-41 225zM397 479q0 -34 5 -69.5t17.5 -74.5t38 -64t60.5 -25q47 0 123 55v424h-10q-111 0 -172.5 -56.5t-61.5 -189.5z " />
<glyph unicode="r" horiz-adv-x="663" d="M82 946h260q13 -16 22.5 -32.5t13 -24.5t10.5 -29t9 -26q25 36 38 53.5t33 37.5t36.5 26.5t42.5 10.5q13 2 27 2t30 -2q31 -4 74 -14l-14 -243q-9 1 -19 1q-57 0 -131 -30q-19 -8 -37.5 -23t-31.5 -29t-42 -46v-578h-301v813q0 69 -20 133z" />
<glyph unicode="s" horiz-adv-x="790" d="M10 25l58 254q197 -54 286 -54q113 0 113 76q0 24 -24 40.5t-62 27t-84.5 21.5t-93 31t-84.5 48.5t-62 79.5t-24 119q0 70 24 124.5t60 86.5t84 52.5t90 28t84 7.5q164 0 307 -25l-47 -240q-179 35 -242 35q-88 0 -88 -37q0 -23 25.5 -39t66 -26t89.5 -22t97.5 -33 t89 -52t66 -86t25.5 -129q0 -161 -106.5 -247t-297.5 -86q-161 0 -350 45z" />
<glyph unicode="t" horiz-adv-x="675" d="M0 713v233h145l5 199h288l-4 -199h180v-233h-178v-205q0 -42 1 -71t7 -69.5t16 -65.5t30 -48q20 -24 48 -30q12 -3 27 -2q19 0 42 4q42 8 95 36l50 -229q-109 -53 -220 -53q-397 0 -397 385v348h-135z" />
<glyph unicode="u" horiz-adv-x="1097" d="M102 383v563h306v-485q0 -41 1.5 -68.5t7.5 -58.5t17.5 -49.5t32 -30.5t49.5 -12q61 0 172 84v620h307v-809q0 -47 3.5 -64t25.5 -73h-272q-10 13 -16 22.5t-10.5 20.5t-6 14t-5 16t-3.5 15q-135 -76 -186.5 -92t-131.5 -16q-77 0 -132 22.5t-85.5 57t-47.5 91 t-21.5 107.5t-4.5 125z" />
<glyph unicode="v" horiz-adv-x="1052" d="M135 455v491h324v-377q0 -85 38 -170.5t109 -154.5q70 63 103 128t43 144q4 36 4 75q0 6 1 13q-1 34 -3 70q-2 44 -5 81t-8 93t-8 98h330q12 -218 12 -362q0 -114 -51.5 -218.5t-134.5 -179.5t-179.5 -127.5t-195.5 -78.5q-185 92 -282 216.5t-97 258.5z" />
<glyph unicode="w" horiz-adv-x="1703" d="M102 254l2 692h316v-555q0 -83 18 -121q17 -35 66 -34h10q40 4 89 42t91 95l8 571h316v-549q0 -85 23.5 -119t76.5 -40q10 -1 19 -1q172 0 172 363q3 1 0 49t-5 74.5t-8 99.5t-10 125h316q2 -36 8.5 -112t10 -135t3.5 -115q0 -137 -20 -231t-84 -173q-73 -92 -192 -146 t-253 -54q-122 0 -196.5 33.5t-130.5 119.5q-13 -9 -53 -36.5t-51.5 -35t-43 -26.5t-48 -24.5t-45.5 -15.5t-56.5 -12.5t-59.5 -2.5q-133 0 -211 67t-78 207z" />
<glyph unicode="x" horiz-adv-x="995" d="M55 0l4 205q2 103 58.5 176.5t183.5 126.5q-123 73 -170 124.5t-47 131.5v182h299l-2 -72q-1 -30 4 -61.5t18.5 -68t43 -67t71.5 -46.5q66 31 89.5 85t23.5 175v55h307v-119q-3 -114 -51 -181t-170 -130q62 -26 100.5 -51.5t65.5 -55.5t40 -74.5t18 -96.5t5 -134v-104 h-297v63q0 56 -0.5 80t-4.5 60t-12 52.5t-23.5 40.5t-38 42t-56.5 41q-31 -15 -52.5 -26.5t-39 -27t-28 -26t-18.5 -32.5t-11.5 -35.5t-6 -47t-2.5 -54.5v-69v-8v-53h-301z" />
<glyph unicode="y" horiz-adv-x="1081" d="M102 301v645h308v-508q0 -108 32 -155q31 -45 92 -45h5q63 3 151 51v657h311v-946q1 -16 1 -31q0 -105 -25 -186q-28 -93 -83 -149.5t-130 -83.5q-71 -27 -161 -27h-7q-186 0 -354 84l73 225q67 -41 133 -55q33 -7 63 -7t57 7q55 14 88.5 68.5t33.5 144.5v82 q-34 -12 -88 -38t-98 -40q-40 -14 -84 -14h-6q-91 1 -153 24t-96 67t-48.5 99.5t-14.5 130.5z" />
<glyph unicode="z" horiz-adv-x="755" d="M6 0v82q35 100 92.5 203t259.5 430h-303l-2 231h695v-82q-20 -82 -58 -156.5t-127.5 -218.5t-148.5 -249h319v-240h-727z" />
<glyph unicode="{" horiz-adv-x="784" d="M80 516v82q84 10 132 37t64 70t17 101.5t-8 131.5q-16 108 -9.5 200.5t36.5 160.5t119.5 106.5t240.5 38.5l-2 -199q-29 0 -51 -5t-37 -17.5t-25 -25t-15.5 -36t-8 -42t-2 -51t1.5 -54.5t4 -62.5t4 -64.5q11 -148 -17 -229t-102 -99q141 -32 119 -330q-1 -23 -3.5 -59 t-3.5 -56t-2 -50t0.5 -47t5 -39.5t10.5 -35.5t17.5 -27t25 -21t35 -12t46.5 -5v-203q-151 0 -240.5 38t-119.5 104.5t-36 158t9 199.5q8 74 7 133.5t-17 102t-63.5 69.5t-131.5 37z" />
<glyph unicode="|" horiz-adv-x="528" d="M123 -471v2007h287v-2007h-287z" />
<glyph unicode="}" horiz-adv-x="606" d="M4 -123q25 0 45.5 5t35 12t25 21t17 27t10.5 35t5 40t0.5 47t-1.5 50t-3 56t-3 59q-22 297 117 330q-141 36 -117 328q1 23 4 64.5t4 62.5t1.5 54.5t-2.5 51t-8 41.5t-15.5 36.5t-25.5 25t-37 17.5t-50 5l-2 199q151 0 240.5 -38.5t119.5 -106.5t36.5 -160.5t-9.5 -200.5 q-10 -73 -9 -131.5t17.5 -101.5t64.5 -70t132 -37v-82q-84 -10 -132 -37t-64 -69.5t-17 -102t8 -133.5q14 -108 8 -199.5t-36 -158t-119 -104.5t-240 -38v203z" />
<glyph unicode="~" horiz-adv-x="1228" d="M12 436q49 109 107.5 175.5t117.5 88.5t121.5 21t123.5 -21.5t120 -44t113.5 -42t101 -21t86.5 26t66 92.5l252 -142q-47 -110 -103.5 -177t-114 -90.5t-119 -23.5t-122 19t-119 42.5t-114.5 42.5t-104.5 23t-92 -20.5t-74.5 -83.5z" />
<glyph unicode="&#xa6;" horiz-adv-x="528" d="M125 281h274v-752h-274v752zM125 784v752h274v-752h-274z" />
<glyph unicode="&#xa7;" horiz-adv-x="987" d="M102 653q0 61 35 125.5t105 112.5q-30 22 -50 67.5t-20 94.5q0 126 97.5 201t246.5 75q47 0 82 -6.5t74 -19.5t63 -19l-94 -227q-17 17 -72 35q-28 9 -42.5 12t-32.5 3.5t-27 -9t-12 -29.5q-7 -26 18 -51.5t72 -38.5q7 -2 36 -11t50.5 -16t56 -21.5t60 -30t55 -40t48 -52 t31.5 -65.5t13 -81q0 -84 -19 -143t-44.5 -90t-69.5 -62q24 -22 41.5 -79t17.5 -116q0 -74 -33 -131.5t-87.5 -92t-118.5 -52t-133 -19.5q-53 -1 -101 8.5t-77 20t-74 31.5l69 262q11 -22 47.5 -38.5t77.5 -21.5q51 -8 78 5t37 61q8 36 -10.5 61t-87.5 49q-10 4 -42.5 16 t-44.5 17t-41.5 18t-42 21.5t-35.5 25.5t-34 32t-26.5 37.5t-22 47t-12 56t-5.5 67.5zM379 647q0 -31 71.5 -71.5t98.5 -40.5q21 11 37 33.5t16 43.5q-1 37 -61 72t-109 45q-53 -33 -53 -82z" />
<glyph unicode="&#xa8;" horiz-adv-x="933" d="M121 1317q0 66 44.5 108.5t106.5 42.5q64 0 109 -42.5t45 -108.5q0 -56 -46 -99.5t-110 -43.5q-58 0 -103.5 43.5t-45.5 99.5zM500 1317q0 67 45 109t112 42q64 0 106 -42t42 -109q0 -57 -44 -100t-110 -43q-61 0 -106 43.5t-45 99.5z" />
<glyph unicode="&#xa9;" horiz-adv-x="1036" d="M111 1006q0 108 46.5 196.5t143.5 144.5t229 56q210 0 315 -109t105 -288q0 -74 -26 -142.5t-76.5 -124.5t-132.5 -89.5t-185 -33.5q-108 0 -191 32.5t-131.5 88.5t-72.5 124t-24 145zM262 1012q0 -133 74.5 -207t198.5 -74q130 0 200 73t70 208q0 124 -69 201t-201 77 t-202.5 -70.5t-70.5 -207.5zM340 1010q0 99 58.5 165.5t148.5 69.5q58 6 129 -16l-31 -88q-54 16 -70 16q-34 0 -53 -21.5t-23.5 -48.5t-4.5 -67q0 -129 75 -137q26 0 76 26l37 -86q-69 -41 -135 -45q-89 -5 -148 53.5t-59 178.5z" />
<glyph unicode="&#xab;" horiz-adv-x="1271" d="M10 489l334 359h338l-293 -359l293 -356h-338zM573 489l334 359h338l-293 -359l293 -356h-338z" />
<glyph unicode="&#xac;" horiz-adv-x="1024" d="M74 475v236h870v-461h-254v225h-616z" />
<glyph unicode="&#xad;" horiz-adv-x="796" d="M125 403v215h557v-215h-557z" />
<glyph unicode="&#xae;" horiz-adv-x="1056" d="M111 1006q0 108 46.5 196.5t143.5 144.5t229 56q210 0 315 -109t105 -288q0 -74 -26 -142.5t-76.5 -124.5t-132.5 -89.5t-185 -33.5q-108 0 -191 32.5t-131.5 88.5t-72.5 124t-24 145zM262 1012q0 -133 74.5 -207t198.5 -74q130 0 200 73t70 208q0 124 -69 201t-201 77 t-202.5 -70.5t-70.5 -207.5zM371 795v430l127 6l30 2q59 2 93 -17t34 -71q0 -42 -32.5 -70.5t-75.5 -38.5v-2q41 -12 53 -30l117 -209h-96l-103 194q-1 1 -4.5 5t-4.5 4.5t-5 3.5t-7.5 3t-10 1t-14.5 1t-19 -1v-211h-82zM453 1071q8 2 30.5 4t36 4.5t25.5 15t12 33.5 q0 22 -41 30t-63 -5v-82z" />
<glyph unicode="&#xb0;" horiz-adv-x="688" d="M14 1157q0 121 93 215t241 94q156 0 243 -90.5t87 -218.5q0 -78 -38 -148t-115 -116.5t-177 -46.5q-157 0 -245.5 93.5t-88.5 217.5zM238 1159q0 -52 31.5 -83.5t84.5 -31.5q115 0 115 115q0 53 -29.5 87t-85.5 34q-58 0 -87 -31.5t-29 -89.5z" />
<glyph unicode="&#xb1;" horiz-adv-x="1200" d="M115 16v281h981v-281h-981zM135 717v270h332v334h278v-334h336v-270h-336v-336h-278v336h-332z" />
<glyph unicode="&#xb4;" horiz-adv-x="425" d="M84 1044q89 136 156 306h325q-61 -108 -225 -306h-256z" />
<glyph unicode="&#xb6;" horiz-adv-x="1081" d="M57 942q0 68 10.5 123.5t26 95.5t42.5 71t52 50.5t63 32t66 18.5t71 8t68 1t67 -3t59 -2l473 6l-4 -69l-174 -2v-1485h-84l2 1485l-150 -2l-4 -1483h-84l2 696q-14 3 -43 9q-59 12 -90.5 19.5t-88 26t-89 37.5t-74 53.5t-63.5 76t-38 102.5t-16 135z" />
<glyph unicode="&#xb7;" horiz-adv-x="450" d="M61 520q0 75 46.5 123.5t121.5 48.5t119.5 -48.5t44.5 -123.5q0 -62 -48.5 -110t-115.5 -48q-74 0 -121 47t-47 111z" />
<glyph unicode="&#xb8;" horiz-adv-x="450" d="M6 -399q121 49 121 110q0 15 -2 28.5t-7 25.5t-8.5 21.5t-12.5 19.5t-13.5 16t-16.5 15.5t-16 13t-17.5 13t-15.5 11.5l97 123h266l-80 -109q117 -78 125 -159q6 -52 -6 -98.5t-48 -92t-110.5 -81t-181.5 -54.5z" />
<glyph unicode="&#xbb;" horiz-adv-x="1241" d="M2 133l293 356l-293 359h338l334 -359l-334 -356h-338zM565 133l293 356l-293 359h338l334 -359l-334 -356h-338z" />
<glyph unicode="&#xc1;" horiz-adv-x="1433" d="M0 0l575 1346h367l492 -1346h-377l-117 356h-424l-139 -356h-377zM604 629h264l-120 391h-7zM664 1458q88 134 155 305h326q-59 -105 -225 -305h-256z" />
<glyph unicode="&#xc2;" horiz-adv-x="1433" d="M0 0l575 1346h367l492 -1346h-377l-117 356h-424l-139 -356h-377zM422 1753h256l86 -186h10l86 186h256l-209 -293h-274zM604 629h264l-120 391h-7z" />
<glyph unicode="&#xc4;" horiz-adv-x="1433" d="M0 0l575 1346h367l492 -1346h-377l-117 356h-424l-139 -356h-377zM399 1606q0 66 45 108.5t107 42.5q64 0 109 -42.5t45 -108.5q0 -56 -46 -100t-110 -44q-58 0 -104 44t-46 100zM604 629h264l-120 391h-7zM778 1606q0 66 45.5 108.5t112.5 42.5q64 0 105.5 -42 t41.5 -109q0 -57 -43.5 -100.5t-109.5 -43.5q-61 0 -106.5 44t-45.5 100z" />
<glyph unicode="&#xc7;" horiz-adv-x="1054" d="M80 690q0 187 74 340t217.5 245t330.5 89q29 0 55 -0.5t44.5 -1.5t42.5 -3.5t35.5 -3.5t38.5 -5t35.5 -5.5t43 -7.5t45.5 -8l-47 -270q-155 33 -233 31q-101 -3 -171.5 -35t-108.5 -90t-54 -126t-16 -157q0 -75 18.5 -142.5t57 -127t109 -94t165.5 -33.5q120 0 242 32 l45 -282q-59 -22 -103 -31l-78 -106q117 -78 125 -160q6 -52 -6 -98.5t-48 -92t-110.5 -81t-181.5 -54.5l-74 197q121 49 121 110q0 15 -1.5 28.5t-7 25.5t-8.5 21t-13 20t-13.5 16t-16 15.5t-15.5 13t-17.5 13t-15.5 11.5l76 99q-146 8 -258 64t-182.5 150.5t-106 219 t-35.5 274.5z" />
<glyph unicode="&#xc9;" horiz-adv-x="997" d="M133 4v1339h782v-272h-448v-229h424v-271h-428l-2 -286h463v-277zM406 1458q88 134 155 305h326q-59 -105 -225 -305h-256z" />
<glyph unicode="&#xcb;" horiz-adv-x="999" d="M133 4v1339h782v-272h-448v-229h424v-271h-428l-2 -286h463v-277zM188 1610q0 66 45 108.5t107 42.5q64 0 109 -42.5t45 -108.5q0 -56 -46 -100t-110 -44q-58 0 -104 44t-46 100zM567 1610q0 66 45.5 108.5t112.5 42.5q64 0 105.5 -42t41.5 -109q0 -57 -43.5 -100.5 t-109.5 -43.5q-61 0 -106.5 44t-45.5 100z" />
<glyph unicode="&#xcd;" horiz-adv-x="589" d="M133 0v1341h324v-1341h-324zM139 1458q90 138 156 305h326q-57 -101 -226 -305h-256z" />
<glyph unicode="&#xce;" horiz-adv-x="593" d="M-45 1460l211 293h274l209 -293h-256l-86 187h-10l-86 -187h-256zM133 0v1341h324v-1341h-324z" />
<glyph unicode="&#xd3;" horiz-adv-x="1427" d="M82 672q0 206 70 360t214.5 242t348.5 88t347.5 -88t213.5 -242t70 -360q0 -208 -70 -362.5t-213.5 -242t-347.5 -87.5q-306 0 -469.5 187.5t-163.5 504.5zM436 678q0 -200 65 -304t216 -104q148 0 209 103.5t61 304.5q0 200 -61 302.5t-209 102.5q-151 0 -216 -103.5 t-65 -301.5zM567 1440q90 138 156 305h326q-57 -101 -226 -305h-256z" />
<glyph unicode="&#xd4;" horiz-adv-x="1427" d="M82 672q0 206 70 360t214.5 242t348.5 88t347.5 -88t213.5 -242t70 -360q0 -208 -70 -362.5t-213.5 -242t-347.5 -87.5q-306 0 -469.5 187.5t-163.5 504.5zM379 1460l211 293h274l209 -293h-256l-86 187h-10l-86 -187h-256zM436 678q0 -200 65 -304t216 -104 q148 0 209 103.5t61 304.5q0 200 -61 302.5t-209 102.5q-151 0 -216 -103.5t-65 -301.5z" />
<glyph unicode="&#xd6;" horiz-adv-x="1427" d="M82 672q0 206 70 360t214.5 242t348.5 88t347.5 -88t213.5 -242t70 -360q0 -208 -70 -362.5t-213.5 -242t-347.5 -87.5q-306 0 -469.5 187.5t-163.5 504.5zM379 1602q0 66 44.5 108.5t106.5 42.5q64 0 109 -42.5t45 -108.5q0 -56 -46 -100t-110 -44q-58 0 -103.5 44 t-45.5 100zM436 678q0 -200 65 -304t216 -104q148 0 209 103.5t61 304.5q0 200 -61 302.5t-209 102.5q-151 0 -216 -103.5t-65 -301.5zM758 1602q0 67 45 109t112 42q64 0 106 -42t42 -109q0 -57 -44 -100.5t-110 -43.5q-61 0 -106 44t-45 100z" />
<glyph unicode="&#xd7;" d="M74 879l196 196l236 -233l239 235l189 -190l-238 -238l238 -239l-197 -197l-237 238l-234 -234l-190 191l233 233z" />
<glyph unicode="&#xda;" horiz-adv-x="1437" d="M123 692v649l352 -2v-555q0 -93 14 -176.5t44 -156.5t84.5 -116.5t127.5 -43.5q22 0 68 -1t81.5 -1t59.5 2v1050l351 2v-1345q-429 -18 -580 -18q-129 0 -232 39t-171 105t-113.5 158t-65.5 194t-20 216zM567 1458q90 138 156 305h326q-57 -101 -226 -305h-256z" />
<glyph unicode="&#xdc;" horiz-adv-x="1437" d="M123 692v649l352 -2v-555q0 -93 14 -176.5t44 -156.5t84.5 -116.5t127.5 -43.5q22 0 68 -1t81.5 -1t59.5 2v1050l351 2v-1345q-429 -18 -580 -18q-129 0 -232 39t-171 105t-113.5 158t-65.5 194t-20 216zM373 1602q0 66 44.5 108.5t106.5 42.5q64 0 109 -42.5t45 -108.5 q0 -56 -46 -100t-110 -44q-58 0 -103.5 44t-45.5 100zM752 1602q0 67 45 109t112 42q64 0 106 -42t42 -109q0 -57 -44 -100.5t-110 -43.5q-61 0 -106 44t-45 100z" />
<glyph unicode="&#xdd;" horiz-adv-x="1261" d="M2 1341h387l246 -454h12l250 454h369l-453 -757v-584h-360v578zM453 1458q88 134 155 305h326q-59 -105 -225 -305h-256z" />
<glyph unicode="&#xdf;" horiz-adv-x="1189" d="M55 692v246h146v147q0 128 104.5 221.5t245.5 114.5q68 11 139.5 -1t131.5 -43t106 -79t62 -109.5t-1 -133.5q-21 -25 -64 -64t-58.5 -65t-6.5 -58q4 -19 35 -50t72 -70.5t82 -87.5t69.5 -115t30.5 -139q2 -86 -27.5 -154.5t-74 -111t-109 -74t-118.5 -46.5t-118 -26 q-36 -6 -68 23.5t-50.5 74.5t-28.5 88t-8 66q22 4 61 10q34 5 49 7.5t39.5 7.5t33.5 8t24.5 9.5t20.5 12.5t13.5 16t10.5 20t6 26t4.5 32.5t1.5 40.5q2 43 -19.5 81.5t-55.5 68.5t-69.5 58.5t-68.5 66t-47 77.5q-8 21 -8.5 44.5t6 45.5t16 42.5t23 41.5t24.5 36.5t24 32.5 t19 26q18 57 -4 78.5t-65 19.5q-28 -3 -47.5 -13.5t-29 -22t-14.5 -34.5t-5.5 -37t-0.5 -43v-10l3 -995h-291v692h-146z" />
<glyph unicode="&#xe1;" d="M59 258q-1 70 17.5 126t51.5 92.5t77.5 64.5t95 41t104 21.5t104.5 7t97 -2.5q0 50 -9 69t-48 38q-32 18 -99 14t-136 -18.5t-128 -34.5l-26 237q197 54 352 54q221 0 312 -86t91 -252v-443q0 -10 -1 -45t-0.5 -50.5t6 -42t16.5 -48.5h-277q-11 12 -17.5 25.5t-11.5 31.5 t-9 27q-30 -17 -71 -44t-58 -35.5t-51 -16.5t-81 -8q-138 0 -218 74.5t-83 203.5zM371 1044q87 132 155 306h326q-61 -108 -225 -306h-256zM389 315q0 -48 26 -60t81 -7q59 4 110 49v88q-12 0 -47.5 2t-56.5 2q-113 6 -113 -74z" />
<glyph unicode="&#xe2;" d="M59 258q-1 70 17.5 126t51.5 92.5t77.5 64.5t95 41t104 21.5t104.5 7t97 -2.5q0 50 -9 69t-48 38q-32 18 -99 14t-136 -18.5t-128 -34.5l-26 237q197 54 352 54q221 0 312 -86t91 -252v-443q0 -10 -1 -45t-0.5 -50.5t6 -42t16.5 -48.5h-277q-11 12 -17.5 25.5t-11.5 31.5 t-9 27q-30 -17 -71 -44t-58 -35.5t-51 -16.5t-81 -8q-138 0 -218 74.5t-83 203.5zM197 1063l211 293h274l209 -293h-256l-86 186h-10l-86 -186h-256zM389 315q0 -48 26 -60t81 -7q59 4 110 49v88q-12 0 -47.5 2t-56.5 2q-113 6 -113 -74z" />
<glyph unicode="&#xe4;" d="M59 258q-1 70 17.5 126t51.5 92.5t77.5 64.5t95 41t104 21.5t104.5 7t97 -2.5q0 50 -9 69t-48 38q-32 18 -99 14t-136 -18.5t-128 -34.5l-26 237q197 54 352 54q221 0 312 -86t91 -252v-443q0 -10 -1 -45t-0.5 -50.5t6 -42t16.5 -48.5h-277q-11 12 -17.5 25.5t-11.5 31.5 t-9 27q-30 -17 -71 -44t-58 -35.5t-51 -16.5t-81 -8q-138 0 -218 74.5t-83 203.5zM190 1167q0 66 45 109t107 43q64 0 109 -43t45 -109q0 -56 -46 -99.5t-110 -43.5q-58 0 -104 43.5t-46 99.5zM389 315q0 -48 26 -60t81 -7q59 4 110 49v88q-12 0 -47.5 2t-56.5 2 q-113 6 -113 -74zM569 1167q0 67 45.5 109.5t112.5 42.5q64 0 105.5 -42.5t41.5 -109.5q0 -57 -43.5 -100t-109.5 -43q-61 0 -106.5 43.5t-45.5 99.5z" />
<glyph unicode="&#xe7;" horiz-adv-x="823" d="M70 467q0 227 125 363.5t366 136.5q93 0 205 -37l-39 -250q-86 27 -143 27q-89 0 -139 -58.5t-50 -175.5q0 -93 44 -149t120 -56q67 0 166 47l72 -252q-86 -36 -111 -45l-72 -98q117 -78 125 -160q5 -41 -1 -78.5t-28 -76.5t-61 -70t-104 -58t-152 -42l-74 196 q121 49 121 111q0 15 -1.5 28.5t-7 25.5t-8.5 21t-13 20t-13.5 16t-16 15.5t-15.5 13t-17.5 13t-15.5 11.5l61 80q-146 23 -234.5 143t-88.5 338z" />
<glyph unicode="&#xe9;" horiz-adv-x="972" d="M61 457q0 104 25 192t77.5 161t144.5 115t216 42q166 0 276.5 -97.5t110.5 -246.5q0 -113 -78.5 -177.5t-197.5 -64.5q-1 0 -5.5 -0.5t-17.5 -1t-36.5 -1t-70.5 -1t-110 -0.5q0 -54 47 -96.5t142 -42.5q96 0 223 67l72 -242q-158 -88 -367 -88q-208 0 -329.5 132 t-121.5 350zM350 1044q89 136 156 306h325q-61 -108 -225 -306h-256zM397 586l148 6q37 0 58.5 18.5t21.5 44.5q0 27 -25 46.5t-70 19.5q-4 0 -12 -1t-12 -1q-38 0 -62.5 -17.5t-33.5 -45t-11 -42t-2 -28.5z" />
<glyph unicode="&#xeb;" horiz-adv-x="968" d="M61 457q0 104 25 192t77.5 161t144.5 115t216 42q166 0 276.5 -97.5t110.5 -246.5q0 -113 -78.5 -177.5t-197.5 -64.5q-1 0 -5.5 -0.5t-17.5 -1t-36.5 -1t-70.5 -1t-110 -0.5q0 -54 47 -96.5t142 -42.5q96 0 223 67l72 -242q-158 -88 -367 -88q-208 0 -329.5 132 t-121.5 350zM172 1163q0 66 45 109t107 43q64 0 108.5 -43t44.5 -109q0 -56 -45.5 -99.5t-109.5 -43.5q-58 0 -104 43.5t-46 99.5zM397 586l148 6q37 0 58.5 18.5t21.5 44.5q0 27 -25 46.5t-70 19.5q-4 0 -12 -1t-12 -1q-38 0 -62.5 -17.5t-33.5 -45t-11 -42t-2 -28.5z M551 1163q0 67 45.5 109.5t112.5 42.5q64 0 105.5 -42.5t41.5 -109.5q0 -57 -44 -100t-110 -43q-61 0 -106 43.5t-45 99.5z" />
<glyph unicode="&#xed;" horiz-adv-x="573" d="M133 0v946h305v-946h-305zM143 1044q89 136 156 306h326q-59 -104 -226 -306h-256z" />
<glyph unicode="&#xee;" horiz-adv-x="573" d="M-61 1063l211 293h274l209 -293h-256l-86 186h-10l-86 -186h-256zM133 0v946h305v-946h-305z" />
<glyph unicode="&#xf3;" horiz-adv-x="1085" d="M61 459q0 238 130.5 370t349.5 138q228 6 355.5 -113t127.5 -358q0 -244 -127.5 -377.5t-355.5 -138.5q-226 -2 -353 118.5t-127 360.5zM401 471q0 -124 36.5 -186t105.5 -60q76 3 116.5 69t40.5 185q0 255 -155 246q-67 -2 -105.5 -69t-38.5 -185zM410 1044 q87 132 155 306h326q-61 -108 -225 -306h-256z" />
<glyph unicode="&#xf4;" horiz-adv-x="1087" d="M61 459q0 238 130.5 370t349.5 138q228 6 355.5 -113t127.5 -358q0 -244 -127.5 -377.5t-355.5 -138.5q-226 -2 -353 118.5t-127 360.5zM205 1063l211 293h274l209 -293h-256l-86 186h-10l-86 -186h-256zM401 471q0 -124 36.5 -186t105.5 -60q76 3 116.5 69t40.5 185 q0 255 -155 246q-67 -2 -105.5 -69t-38.5 -185z" />
<glyph unicode="&#xf6;" horiz-adv-x="1091" d="M61 459q0 238 130.5 370t349.5 138q228 6 355.5 -113t127.5 -358q0 -244 -127.5 -377.5t-355.5 -138.5q-226 -2 -353 118.5t-127 360.5zM221 1163q0 66 45 109t107 43q64 0 108.5 -43t44.5 -109q0 -56 -45.5 -99.5t-109.5 -43.5q-58 0 -104 43.5t-46 99.5zM401 471 q0 -124 36.5 -186t105.5 -60q76 3 116.5 69t40.5 185q0 255 -155 246q-67 -2 -105.5 -69t-38.5 -185zM600 1163q0 67 45.5 109.5t112.5 42.5q64 0 105.5 -42.5t41.5 -109.5q0 -57 -43.5 -100t-109.5 -43q-61 0 -106.5 43.5t-45.5 99.5z" />
<glyph unicode="&#xf7;" horiz-adv-x="997" d="M84 422v215h844v-215h-844zM340 186q0 75 46.5 123.5t121.5 48.5t119.5 -48.5t44.5 -123.5q0 -62 -48.5 -109.5t-115.5 -47.5q-74 0 -121 46.5t-47 110.5zM340 854q0 75 46.5 123.5t121.5 48.5t119.5 -48.5t44.5 -123.5q0 -62 -48.5 -110t-115.5 -48q-74 0 -121 47 t-47 111z" />
<glyph unicode="&#xfa;" horiz-adv-x="1101" d="M102 383v563h306v-485q0 -41 1.5 -68.5t7.5 -58.5t17.5 -49.5t32 -30.5t49.5 -12q61 0 172 84v620h307v-809q0 -47 3.5 -64t25.5 -73h-272q-10 13 -16 22.5t-10.5 20.5t-6 14t-5 16t-3.5 15q-135 -76 -186.5 -92t-131.5 -16q-77 0 -132 22.5t-85.5 57t-47.5 91 t-21.5 107.5t-4.5 125zM391 1044q89 136 156 306h325q-61 -108 -225 -306h-256z" />
<glyph unicode="&#xfc;" horiz-adv-x="1124" d="M102 383v563h306v-485q0 -41 1.5 -68.5t7.5 -58.5t17.5 -49.5t32 -30.5t49.5 -12q61 0 172 84v620h307v-809q0 -47 3.5 -64t25.5 -73h-272q-10 13 -16 22.5t-10.5 20.5t-6 14t-5 16t-3.5 15q-135 -76 -186.5 -92t-131.5 -16q-77 0 -132 22.5t-85.5 57t-47.5 91 t-21.5 107.5t-4.5 125zM211 1161q0 66 44.5 109t106.5 43q64 0 109 -43t45 -109q0 -56 -46 -99.5t-110 -43.5q-58 0 -103.5 43.5t-45.5 99.5zM590 1161q0 67 45.5 109.5t112.5 42.5q64 0 105.5 -42.5t41.5 -109.5q0 -57 -44 -100t-110 -43q-61 0 -106 43.5t-45 99.5z" />
<glyph unicode="&#xfd;" horiz-adv-x="1101" d="M102 301v645h308v-508q0 -108 32 -155t97 -45q63 3 151 51v657h311v-946q4 -124 -24 -217t-83 -149.5t-129.5 -84t-168.5 -26.5q-186 0 -354 84l73 225q67 -41 133 -55t120.5 0t88 68.5t33.5 144.5v82q-34 -12 -88 -38t-97.5 -40.5t-90.5 -13.5q-91 1 -153 24t-96 67 t-48.5 99.5t-14.5 130.5zM418 1044q87 132 155 306h326q-61 -108 -225 -306h-256z" />
<glyph unicode="&#x102;" horiz-adv-x="1433" d="M0 0l575 1346h367l492 -1346h-377l-117 356h-424l-139 -356h-377zM428 1757h221q3 -58 33.5 -90.5t67 -32t67 33t33.5 89.5h209q3 -125 -62 -212t-159 -107.5t-188.5 -1.5t-159.5 106t-62 215zM604 629h264l-120 391h-7z" />
<glyph unicode="&#x103;" d="M59 258q-1 70 17.5 126t51.5 92.5t77.5 64.5t95 41t104 21.5t104.5 7t97 -2.5q0 50 -9 69t-48 38q-32 18 -99 14t-136 -18.5t-128 -34.5l-26 237q197 54 352 54q221 0 312 -86t91 -252v-443q0 -10 -1 -45t-0.5 -50.5t6 -42t16.5 -48.5h-277q-11 12 -17.5 25.5t-11.5 31.5 t-9 27q-30 -17 -71 -44t-58 -35.5t-51 -16.5t-81 -8q-138 0 -218 74.5t-83 203.5zM215 1368h221q3 -58 33.5 -90.5t67 -32t67 33t33.5 89.5h209q3 -125 -62 -212t-159 -107.5t-188.5 -1.5t-159.5 106t-62 215zM389 315q0 -48 26 -60t81 -7q59 4 110 49v88q-12 0 -47.5 2 t-56.5 2q-113 6 -113 -74z" />
<glyph unicode="&#x104;" horiz-adv-x="1439" d="M0 0l575 1346h367l492 -1346h-72q-105 -144 -113 -178q-8 -24 -8 -49q0 -68 80 -68q23 0 35 2l-10 -215q-74 -12 -140 -12q-149 0 -234 57t-85 154q0 143 168 311l-115 354h-424l-139 -356h-377zM604 629h264l-120 391h-7z" />
<glyph unicode="&#x105;" d="M59 258q-1 70 17.5 126t51.5 92.5t77.5 64.5t95 41t104 21.5t104.5 7t97 -2.5q0 50 -9 69t-48 38q-32 18 -99 14t-136 -18.5t-128 -34.5l-26 237q197 54 352 54q221 0 312 -86t91 -252v-443q0 -10 -1 -45t-0.5 -50.5t6 -42t16.5 -48.5q-102 -124 -102 -205 q0 -35 21.5 -55.5t62.5 -20.5q3 0 38 5l21 -232q-62 -4 -137 -4q-164 0 -239 63.5t-75 157.5q0 128 133 291q-11 12 -17.5 25.5t-11.5 31.5t-9 27q-30 -17 -71 -44t-58 -35.5t-51 -16.5t-81 -8q-138 0 -218 74.5t-83 203.5zM389 315q0 -48 26 -60t81 -7q59 4 110 49v88 q-12 0 -47.5 2t-56.5 2q-113 6 -113 -74z" />
<glyph unicode="&#x106;" horiz-adv-x="1050" d="M80 690q0 187 74 340t217.5 245t330.5 89q29 0 55 -0.5t44.5 -1.5t42.5 -3.5t35.5 -3.5t38.5 -5t35.5 -5.5t43 -7.5t45.5 -8l-47 -270q-155 33 -233 31q-101 -3 -171.5 -35t-108.5 -90t-54 -126t-16 -157q0 -75 18.5 -142.5t57 -127t109 -94t165.5 -33.5q120 0 242 32 l45 -282q-143 -55 -336 -55q-158 0 -280.5 52.5t-198.5 148t-115 224t-39 285.5zM563 1458q90 138 156 305h325q-59 -105 -225 -305h-256z" />
<glyph unicode="&#x107;" horiz-adv-x="813" d="M70 467q0 227 125 363.5t366 136.5q93 0 205 -37l-39 -250q-86 27 -143 27q-89 0 -139 -58.5t-50 -175.5q0 -93 44 -149t120 -56q67 0 166 47l72 -252q-184 -83 -332 -83q-83 0 -153.5 28.5t-125 86t-85.5 152.5t-31 220zM356 1044q89 136 156 306h326 q-59 -104 -226 -306h-256z" />
<glyph unicode="&#x10c;" horiz-adv-x="1071" d="M80 690q0 187 74 340t217.5 245t330.5 89q29 0 55 -0.5t44.5 -1.5t42.5 -3.5t35.5 -3.5t38.5 -5t35.5 -5.5t43 -7.5t45.5 -8l-47 -270q-155 33 -233 31q-101 -3 -171.5 -35t-108.5 -90t-54 -126t-16 -157q0 -75 18.5 -142.5t57 -127t109 -94t165.5 -33.5q120 0 242 32 l45 -282q-143 -55 -336 -55q-158 0 -280.5 52.5t-198.5 148t-115 224t-39 285.5zM358 1753h256l86 -186h11l86 186h256l-209 -293h-275z" />
<glyph unicode="&#x10d;" horiz-adv-x="770" d="M39 467q0 227 125 363.5t366 136.5q93 0 205 -37l-39 -250q-86 27 -143 27q-89 0 -138.5 -58.5t-49.5 -175.5q0 -93 43.5 -149t119.5 -56q67 0 166 47l72 -252q-184 -83 -332 -83q-83 0 -153.5 28.5t-125 86t-85.5 152.5t-31 220zM119 1339h256l86 -186h10l86 186h256 l-209 -292h-274z" />
<glyph unicode="&#x10e;" horiz-adv-x="1376" d="M131 1341l524 25q311 13 478 -159t167 -494q0 -131 -52 -258t-142.5 -226.5t-222.5 -162t-281 -66.5q-137 -5 -469 0zM272 1753h256l86 -186h11l86 186h256l-209 -293h-275zM459 293q124 -4 151 -2q89 6 159 41.5t114.5 93t68.5 128.5t27 153q3 180 -90 289t-273 110 q-33 0 -155 -4z" />
<glyph unicode="&#x10f;" horiz-adv-x="1351" d="M86 459q0 128 50 243t147 190t219 75q24 0 49 -3t41 -6t46.5 -10t47.5 -10v451h301v-1280q0 -43 3.5 -59t23.5 -50h-293q-3 -1 -11 9.5t-15.5 31.5t-8.5 43q-5 -4 -28 -21t-31 -22t-28.5 -18t-33.5 -18t-33.5 -12.5t-41.5 -10t-44 -2.5q-86 0 -156 42.5t-113.5 112 t-67 153.5t-23.5 171zM422 467q0 -115 28.5 -160t100.5 -45q11 0 21 2t16.5 3.5t18.5 8.5t18.5 10.5t26 17t30.5 20.5v383q-98 12 -113 12q-147 0 -147 -252zM1042 913l41 478h291l-90 -478h-242z" />
<glyph unicode="&#x110;" horiz-adv-x="1366" d="M2 543v270h129v528l524 25q311 13 478 -159t167 -494q0 -131 -52 -258t-142.5 -226.5t-222.5 -162t-281 -66.5q-137 -5 -469 0l-2 543h-129zM459 293q124 -4 151 -2q89 6 159 41.5t114.5 93t68.5 128.5t27 153q3 180 -90 289t-273 110q-33 0 -155 -4l-2 -289h278v-270 h-278v-250z" />
<glyph unicode="&#x111;" horiz-adv-x="1097" d="M86 459q0 128 50 243t147 190t219 75q24 0 49 -3t41 -6t46.5 -10t47.5 -10v92h-197v225h197v134h301v-134h111v-225h-111v-921q0 -43 3.5 -59t23.5 -50h-293q-3 -1 -11 9.5t-15.5 31.5t-8.5 43q-5 -4 -28 -21t-31 -22t-28.5 -18t-33.5 -18t-33.5 -12.5t-41.5 -10 t-44 -2.5q-86 0 -156 42.5t-113.5 112t-67 153.5t-23.5 171zM422 467q0 -115 28.5 -160t100.5 -45q11 0 21 2t16.5 3.5t18.5 8.5t18.5 10.5t26 17t30.5 20.5v383q-98 12 -113 12q-147 0 -147 -252z" />
<glyph unicode="&#x118;" horiz-adv-x="983" d="M133 4v1339h782v-272h-448v-229h424v-271h-428l-2 -286h463v-275h4q-115 -157 -123 -190q-8 -24 -8 -49q0 -68 80 -68q22 0 34 2l-10 -215q-74 -12 -139 -12q-149 0 -234.5 57t-85.5 154q0 143 174 317z" />
<glyph unicode="&#x119;" horiz-adv-x="972" d="M61 457q0 104 25 192t77.5 161t144.5 115t216 42q166 0 276.5 -97.5t110.5 -246.5q0 -113 -78.5 -177.5t-197.5 -64.5q-1 0 -5.5 -0.5t-17.5 -1t-36.5 -1t-70.5 -1t-110 -0.5q0 -54 47 -96.5t142 -42.5q96 0 223 67l72 -242q-51 -28 -88 -40q-98 -133 -107 -170 q-8 -24 -8 -50q0 -67 80 -67q23 0 35 2l-11 -215q-73 -12 -139 -12q-142 0 -202 53.5t-60 156.5q0 51 37 112.5t108 146.5q-117 7 -206.5 45.5t-145 102t-83.5 146t-28 183.5zM397 586l148 6q37 0 58.5 18.5t21.5 44.5q0 27 -25 46.5t-70 19.5q-4 0 -12 -1t-12 -1 q-38 0 -62.5 -17.5t-33.5 -45t-11 -42t-2 -28.5z" />
<glyph unicode="&#x11a;" horiz-adv-x="1210" d="M133 4v1339h782v-272h-448v-229h424v-271h-428l-2 -286h463v-277zM229 1753h256l86 -186h11l86 186h256l-209 -293h-275z" />
<glyph unicode="&#x11b;" horiz-adv-x="976" d="M61 457q0 104 25 192t77.5 161t144.5 115t216 42q166 0 276.5 -97.5t110.5 -246.5q0 -113 -78.5 -177.5t-197.5 -64.5q-1 0 -5.5 -0.5t-17.5 -1t-36.5 -1t-70.5 -1t-110 -0.5q0 -54 47 -96.5t142 -42.5q96 0 223 67l72 -242q-158 -88 -367 -88q-208 0 -329.5 132 t-121.5 350zM156 1339h256l86 -186h10l86 186h256l-209 -292h-274zM397 586l148 6q37 0 58.5 18.5t21.5 44.5q0 27 -25 46.5t-70 19.5q-4 0 -12 -1t-12 -1q-38 0 -62.5 -17.5t-33.5 -45t-11 -42t-2 -28.5z" />
<glyph unicode="&#x139;" horiz-adv-x="1064" d="M133 0v1341h348v-1052h424v-289h-772zM172 1458q90 138 156 305h325q-59 -105 -225 -305h-256z" />
<glyph unicode="&#x13a;" horiz-adv-x="505" d="M102 223v1166h301v-1164q0 -50 1.5 -77.5t11 -69.5t28.5 -78h-301q-19 35 -28.5 77t-11 69.5t-1.5 76.5zM106 1460q90 138 156 305h326q-57 -101 -226 -305h-256z" />
<glyph unicode="&#x13d;" horiz-adv-x="907" d="M133 0v1341h348v-1052h424v-289h-772zM616 860l41 477h291l-90 -477h-242z" />
<glyph unicode="&#x13e;" horiz-adv-x="788" d="M102 223v1166h301v-1164q0 -50 1.5 -77.5t11 -69.5t28.5 -78h-301q-19 35 -28.5 77t-11 69.5t-1.5 76.5zM461 911l41 478h291l-91 -478h-241z" />
<glyph unicode="&#x141;" horiz-adv-x="1026" d="M0 354v285l254 94v608h348v-477l238 90v-284l-238 -90v-291h424v-289h-772v449z" />
<glyph unicode="&#x142;" horiz-adv-x="583" d="M10 389v266l140 103v631h301v-410l114 86v-266l-114 -86v-488q0 -50 1.5 -77.5t11 -69.5t28.5 -78h-302q-19 34 -28.5 77t-10.5 69t-1 77v269z" />
<glyph unicode="&#x143;" horiz-adv-x="1443" d="M133 0v1339l262 7l617 -824h6v817h295v-1339h-275l-598 776h-6v-776h-301zM604 1432q90 138 156 305h325q-59 -105 -225 -305h-256z" />
<glyph unicode="&#x144;" horiz-adv-x="1107" d="M82 946h289q8 -15 19.5 -53t12.5 -53q83 63 150 95.5t129 31.5q105 -3 166.5 -32.5t105.5 -98.5q54 -89 54 -252v-584h-308v492q0 112 -27.5 161t-80.5 49q-39 2 -94.5 -33.5t-87.5 -84.5v-584h-308v739q0 137 -20 207zM459 1044q87 132 155 306h326q-61 -108 -225 -306 h-256z" />
<glyph unicode="&#x147;" horiz-adv-x="1443" d="M133 0v1339l262 7l617 -824h6v817h295v-1339h-275l-598 776h-6v-776h-301zM401 1753h256l86 -186h11l86 186h256l-209 -293h-275z" />
<glyph unicode="&#x148;" horiz-adv-x="1112" d="M82 946h289q8 -15 19.5 -53t12.5 -53q83 63 150 95.5t129 31.5q105 -3 166.5 -32.5t105.5 -98.5q54 -89 54 -252v-584h-308v492q0 112 -27.5 161t-80.5 49q-39 2 -94.5 -33.5t-87.5 -84.5v-584h-308v739q0 137 -20 207zM272 1339h256l86 -186h11l86 186h256l-209 -292 h-275z" />
<glyph unicode="&#x150;" horiz-adv-x="1427" d="M82 672q0 206 70 360t214.5 242t348.5 88t347.5 -88t213.5 -242t70 -360q0 -208 -70 -362.5t-213.5 -242t-347.5 -87.5q-306 0 -469.5 187.5t-163.5 504.5zM371 1462q32 49 60.5 106t44 93.5t42.5 105.5h326q-27 -48 -68.5 -107.5t-66 -90t-86.5 -107.5h-252zM436 678 q0 -200 65 -304t216 -104q148 0 209 103.5t61 304.5q0 200 -61 302.5t-209 102.5q-151 0 -216 -103.5t-65 -301.5zM786 1462q73 115 148 305h323q-27 -49 -66 -105.5t-69 -94.5t-84 -105h-252z" />
<glyph unicode="&#x151;" horiz-adv-x="1087" d="M61 459q0 238 130.5 370t349.5 138q228 6 355.5 -113t127.5 -358q0 -244 -127.5 -377.5t-355.5 -138.5q-226 -2 -353 118.5t-127 360.5zM176 1044q69 105 148 306h325q-55 -101 -221 -306h-252zM401 471q0 -124 36.5 -186t105.5 -60q76 3 116.5 69t40.5 185 q0 255 -155 246q-67 -2 -105.5 -69t-38.5 -185zM592 1044q70 110 147 306h324q-59 -108 -219 -306h-252z" />
<glyph unicode="&#x154;" horiz-adv-x="1298" d="M133 0v1343q239 14 462.5 20t274.5 1q58 -6 100.5 -15.5t86.5 -30.5t71 -52t44 -82t16 -119q-3 -171 -68 -267t-182 -141q69 -47 92 -94l264 -563h-391l-229 504q-20 46 -63 59t-119 10l-5 -573h-354zM489 838q142 9 199 26q115 36 115 135q0 22 -8 38.5t-21 27t-36.5 17 t-46.5 9.5t-59 3t-67 -2t-76 -5v-249zM537 1458q88 134 155 305h326q-59 -105 -225 -305h-256z" />
<glyph unicode="&#x155;" horiz-adv-x="694" d="M82 946h260q13 -16 22.5 -32.5t13 -24.5t10.5 -29t9 -26q25 36 38 53.5t33 37.5t36.5 26.5t42.5 11t57 0t74 -14.5l-14 -243q-64 6 -150 -29q-19 -8 -37.5 -23t-31.5 -29t-42 -46v-578h-301v813q0 69 -20 133zM238 1044q87 132 155 306h326q-61 -108 -225 -306h-256z" />
<glyph unicode="&#x158;" horiz-adv-x="1298" d="M133 0v1343q239 14 462.5 20t274.5 1q58 -6 100.5 -15.5t86.5 -30.5t71 -52t44 -82t16 -119q-3 -171 -68 -267t-182 -141q69 -47 92 -94l264 -563h-391l-229 504q-20 46 -63 59t-119 10l-5 -573h-354zM328 1753h256l86 -186h10l86 186h256l-209 -293h-274zM489 838 q142 9 199 26q115 36 115 135q0 22 -8 38.5t-21 27t-36.5 17t-46.5 9.5t-59 3t-67 -2t-76 -5v-249z" />
<glyph unicode="&#x159;" horiz-adv-x="684" d="M66 1339h256l86 -186h10l86 186h256l-209 -292h-275zM82 946h260q13 -16 22.5 -32.5t13 -24.5t10.5 -29t9 -26q25 36 38 53.5t33 37.5t36.5 26.5t42.5 11t57 0t74 -14.5l-14 -243q-64 6 -150 -29q-19 -8 -37.5 -23t-31.5 -29t-42 -46v-578h-301v813q0 69 -20 133z" />
<glyph unicode="&#x15a;" horiz-adv-x="1067" d="M53.5 905.5q-11.5 82.5 26.5 202.5q40 119 139.5 187.5t231.5 68.5q47 0 430 -18l-25 -287q-49 2 -146.5 9t-129.5 7q-76 0 -108 -8.5t-46 -38.5q-44 -77 30 -126q38 -26 169 -72q166 -59 242 -112q161 -112 151 -308q-4 -99 -47 -182t-109 -135.5t-144.5 -82 t-158.5 -30.5q-21 0 -79.5 1.5t-160.5 2.5t-241 0l8 290q89 -2 211 -7t156 -5q195 0 202 119q3 42 -37 77.5t-103.5 62t-139 61.5t-143.5 75t-117.5 103t-61 145.5zM412 1438q88 134 155 305h326q-59 -105 -225 -305h-256z" />
<glyph unicode="&#x15b;" horiz-adv-x="790" d="M10 25l58 254q197 -54 286 -54q113 0 113 76q0 24 -24 40.5t-62 27t-84.5 21.5t-93 31t-84.5 48.5t-62 79.5t-24 119q0 70 24 124.5t60 86.5t84 52.5t90 28t84 7.5q164 0 307 -25l-47 -240q-179 35 -242 35q-88 0 -88 -37q0 -23 25.5 -39t66 -26t89.5 -22t97.5 -33 t89 -52t66 -86t25.5 -129q0 -161 -106.5 -247t-297.5 -86q-161 0 -350 45zM262 1044q89 136 156 306h325q-61 -108 -225 -306h-256z" />
<glyph unicode="&#x160;" horiz-adv-x="1064" d="M53.5 905.5q-11.5 82.5 26.5 202.5q40 119 139.5 187.5t231.5 68.5q47 0 430 -18l-25 -287q-49 2 -146.5 9t-129.5 7q-76 0 -108 -8.5t-46 -38.5q-44 -77 30 -126q38 -26 169 -72q166 -59 242 -112q161 -112 151 -308q-4 -99 -47 -182t-109 -135.5t-144.5 -82 t-158.5 -30.5q-21 0 -79.5 1.5t-160.5 2.5t-241 0l8 290q89 -2 211 -7t156 -5q195 0 202 119q3 42 -37 77.5t-103.5 62t-139 61.5t-143.5 75t-117.5 103t-61 145.5zM238 1753h256l86 -186h10l86 186h256l-209 -293h-274z" />
<glyph unicode="&#x161;" horiz-adv-x="790" d="M10 25l58 254q197 -54 286 -54q113 0 113 76q0 24 -24 40.5t-62 27t-84.5 21.5t-93 31t-84.5 48.5t-62 79.5t-24 119q0 70 24 124.5t60 86.5t84 52.5t90 28t84 7.5q164 0 307 -25l-47 -240q-179 35 -242 35q-88 0 -88 -37q0 -23 25.5 -39t66 -26t89.5 -22t97.5 -33 t89 -52t66 -86t25.5 -129q0 -161 -106.5 -247t-297.5 -86q-161 0 -350 45zM102 1339h256l86 -186h11l86 186h256l-209 -292h-275z" />
<glyph unicode="&#x162;" horiz-adv-x="1052" d="M8 1040v303h1039v-303h-345v-1040h-350v1040h-344zM213 -391q90 138 156 305h325q-59 -105 -225 -305h-256z" />
<glyph unicode="&#x163;" horiz-adv-x="745" d="M0 713v233h145l5 199h288l-4 -199h180v-233h-178v-205q0 -42 1 -71t7 -69.5t16 -65.5t30 -48t47.5 -29.5t69.5 1.5t95 36l50 -229q-109 -53 -220 -53q-397 0 -397 385v348h-135zM141 -391q90 138 156 305h326q-57 -101 -226 -305h-256z" />
<glyph unicode="&#x164;" horiz-adv-x="1052" d="M8 1040v303h1039v-303h-345v-1040h-350v1040h-344zM219 1753h256l86 -186h10l86 186h256l-208 -293h-275z" />
<glyph unicode="&#x165;" horiz-adv-x="813" d="M0 713v233h145l5 199h288l-4 -199h180v-233h-178v-205q0 -42 1 -71t7 -69.5t16 -65.5t30 -48t47.5 -29.5t69.5 1.5t95 36l50 -229q-109 -53 -220 -53q-397 0 -397 385v348h-135zM522 1001l41 478h291l-90 -478h-242z" />
<glyph unicode="&#x16e;" horiz-adv-x="1437" d="M123 692v649l352 -2v-555q0 -93 14 -176.5t44 -156.5t84.5 -116.5t127.5 -43.5q22 0 68 -1t81.5 -1t59.5 2v1050l351 2v-1345q-429 -18 -580 -18q-129 0 -232 39t-171 105t-113.5 158t-65.5 194t-20 216zM489 1587q0 93 70.5 163.5t183.5 70.5q122 0 187 -66t65 -168 q0 -96 -67 -166.5t-185 -70.5q-120 0 -187 70t-67 167zM674 1579q0 -43 18 -67.5t53 -24.5q70 0 70 94q0 96 -70 96q-71 0 -71 -98z" />
<glyph unicode="&#x16f;" horiz-adv-x="1101" d="M102 383v563h306v-485q0 -41 1.5 -68.5t7.5 -58.5t17.5 -49.5t32 -30.5t49.5 -12q61 0 172 84v620h307v-809q0 -47 3.5 -64t25.5 -73h-272q-10 13 -16 22.5t-10.5 20.5t-6 14t-5 16t-3.5 15q-135 -76 -186.5 -92t-131.5 -16q-77 0 -132 22.5t-85.5 57t-47.5 91 t-21.5 107.5t-4.5 125zM299 1245q0 93 70.5 163.5t183.5 70.5q122 0 187 -66t65 -168q0 -96 -67 -166.5t-185 -70.5q-120 0 -187 70t-67 167zM483 1237q0 -43 18.5 -67.5t53.5 -24.5q70 0 70 94q0 96 -70 96q-72 0 -72 -98z" />
<glyph unicode="&#x170;" horiz-adv-x="1437" d="M123 692v649l352 -2v-555q0 -93 14 -176.5t44 -156.5t84.5 -116.5t127.5 -43.5q22 0 68 -1t81.5 -1t59.5 2v1050l351 2v-1345q-429 -18 -580 -18q-129 0 -232 39t-171 105t-113.5 158t-65.5 194t-20 216zM373 1458q32 49 60.5 106t44 93.5t42.5 105.5h326 q-27 -48 -68.5 -107.5t-66 -90t-86.5 -107.5h-252zM788 1458q73 115 148 305h324q-27 -49 -67 -106.5t-67.5 -92.5t-85.5 -106h-252z" />
<glyph unicode="&#x171;" horiz-adv-x="1095" d="M102 383v563h306v-485q0 -41 1.5 -68.5t7.5 -58.5t17.5 -49.5t32 -30.5t49.5 -12q61 0 172 84v620h307v-809q0 -47 3.5 -64t25.5 -73h-272q-10 13 -16 22.5t-10.5 20.5t-6 14t-5 16t-3.5 15q-135 -76 -186.5 -92t-131.5 -16q-77 0 -132 22.5t-85.5 57t-47.5 91 t-21.5 107.5t-4.5 125zM195 1044q32 49 61 106.5t43.5 93t42.5 106.5h326q-27 -48 -69 -108t-66 -90t-87 -108h-251zM610 1044q72 114 148 306h323q-59 -108 -219 -306h-252z" />
<glyph unicode="&#x179;" horiz-adv-x="1013" d="M10 0v57l525 1006h-441v278h903v-32l-497 -1014h504l-3 -295h-991zM412 1438q88 134 155 305h326q-59 -105 -225 -305h-256z" />
<glyph unicode="&#x17a;" horiz-adv-x="770" d="M6 0v82q35 100 92.5 203t259.5 430h-303l-2 231h695v-82q-20 -82 -58 -156.5t-127.5 -218.5t-148.5 -249h319v-240h-727zM272 1044q89 136 156 306h326q-59 -104 -226 -306h-256z" />
<glyph unicode="&#x17b;" horiz-adv-x="1013" d="M10 0v57l525 1006h-441v278h903v-32l-497 -1014h504l-3 -295h-991zM432 1583q0 75 45.5 124.5t120.5 49.5t120.5 -49.5t45.5 -124.5q0 -62 -49.5 -109t-116.5 -47q-74 0 -120 46t-46 110z" />
<glyph unicode="&#x17c;" horiz-adv-x="755" d="M6 0v82q35 100 92.5 203t259.5 430h-303l-2 231h695v-82q-20 -82 -58 -156.5t-127.5 -218.5t-148.5 -249h319v-240h-727zM262 1233q0 75 45.5 124.5t120.5 49.5t120.5 -49.5t45.5 -124.5q0 -62 -49.5 -109t-116.5 -47q-74 0 -120 46t-46 110z" />
<glyph unicode="&#x17d;" d="M10 0v57l525 1006h-441v278h903v-32l-497 -1014h504l-3 -295h-991zM233 1753h256l86 -186h11l86 186h256l-209 -293h-275z" />
<glyph unicode="&#x17e;" horiz-adv-x="770" d="M6 0v82q35 100 92.5 203t259.5 430h-303l-2 231h695v-82q-20 -82 -58 -156.5t-127.5 -218.5t-148.5 -249h319v-240h-727zM82 1339h256l86 -186h10l86 186h256l-209 -292h-274z" />
<glyph unicode="&#x218;" horiz-adv-x="1071" d="M53.5 905.5q-11.5 82.5 26.5 202.5q40 119 139.5 187.5t231.5 68.5q47 0 430 -18l-25 -287q-49 2 -146.5 9t-129.5 7q-76 0 -108 -8.5t-46 -38.5q-44 -77 30 -126q38 -26 169 -72q166 -59 242 -112q161 -112 151 -308q-4 -99 -47 -182t-109 -135.5t-144.5 -82 t-158.5 -30.5q-21 0 -79.5 1.5t-160.5 2.5t-241 0l8 290q89 -2 211 -7t156 -5q195 0 202 119q3 42 -37 77.5t-103.5 62t-139 61.5t-143.5 75t-117.5 103t-61 145.5zM233 -391q90 138 156 305h326q-57 -101 -226 -305h-256z" />
<glyph unicode="&#x219;" horiz-adv-x="786" d="M10 25l58 254q197 -54 286 -54q113 0 113 76q0 24 -24 40.5t-62 27t-84.5 21.5t-93 31t-84.5 48.5t-62 79.5t-24 119q0 70 24 124.5t60 86.5t84 52.5t90 28t84 7.5q164 0 307 -25l-47 -240q-179 35 -242 35q-88 0 -88 -37q0 -23 25.5 -39t66 -26t89.5 -22t97.5 -33 t89 -52t66 -86t25.5 -129q0 -161 -106.5 -247t-297.5 -86q-161 0 -350 45zM121 -391q88 134 155 305h326q-59 -105 -225 -305h-256z" />
<glyph unicode="&#x2c7;" horiz-adv-x="704" d="M2 1339h256l86 -186h10l86 186h256l-209 -292h-274z" />
<glyph unicode="&#x2d8;" horiz-adv-x="811" d="M98 1343h221q3 -58 33.5 -90.5t67 -32t67 33t33.5 89.5h209q3 -125 -62 -212t-159 -107.5t-188.5 -1.5t-159.5 106t-62 215z" />
<glyph unicode="&#x2d9;" horiz-adv-x="505" d="M150 1233q0 75 45 124.5t120 49.5t120.5 -49.5t45.5 -124.5q0 -62 -49.5 -109t-116.5 -47q-74 0 -119.5 46t-45.5 110z" />
<glyph unicode="&#x2db;" horiz-adv-x="548" d="M51 -309q0 143 178 321h308q-115 -157 -123 -190q-8 -24 -8 -49q0 -68 79 -68q23 0 35 2l-10 -215q-74 -12 -139 -12q-149 0 -234.5 57t-85.5 154z" />
<glyph unicode="&#x2dd;" horiz-adv-x="899" d="M10 1044q69 105 148 306h325q-55 -101 -221 -306h-252zM426 1044q70 110 147 306h324q-59 -108 -219 -306h-252z" />
<glyph unicode="&#x2000;" horiz-adv-x="910" />
<glyph unicode="&#x2001;" horiz-adv-x="1821" />
<glyph unicode="&#x2002;" horiz-adv-x="910" />
<glyph unicode="&#x2003;" horiz-adv-x="1821" />
<glyph unicode="&#x2004;" horiz-adv-x="607" />
<glyph unicode="&#x2005;" horiz-adv-x="455" />
<glyph unicode="&#x2006;" horiz-adv-x="303" />
<glyph unicode="&#x2007;" horiz-adv-x="303" />
<glyph unicode="&#x2008;" horiz-adv-x="227" />
<glyph unicode="&#x2009;" horiz-adv-x="364" />
<glyph unicode="&#x200a;" horiz-adv-x="101" />
<glyph unicode="&#x2010;" horiz-adv-x="729" d="M125 377v268h475v-268h-475z" />
<glyph unicode="&#x2011;" horiz-adv-x="729" d="M125 377v268h475v-268h-475z" />
<glyph unicode="&#x2012;" horiz-adv-x="729" d="M125 377v268h475v-268h-475z" />
<glyph unicode="&#x2013;" horiz-adv-x="1030" d="M63 403v215h900v-215h-900z" />
<glyph unicode="&#x2014;" horiz-adv-x="1796" d="M63 403v215h1690v-215h-1690z" />
<glyph unicode="&#x2018;" horiz-adv-x="444" d="M59 893l91 477h241l-41 -477h-291z" />
<glyph unicode="&#x2019;" horiz-adv-x="428" d="M59 893l41 477h291l-90 -477h-242z" />
<glyph unicode="&#x201a;" horiz-adv-x="450" d="M70 -281l41 478h290l-90 -478h-241z" />
<glyph unicode="&#x201c;" horiz-adv-x="819" d="M59 893l91 477h241l-41 -477h-291zM422 893l92 477h242l-41 -477h-293z" />
<glyph unicode="&#x201d;" horiz-adv-x="847" d="M80 893l41 477h291l-90 -477h-242zM442 893l41 477h293l-92 -477h-242z" />
<glyph unicode="&#x201e;" horiz-adv-x="837" d="M80 -281l41 478h291l-90 -478h-242zM442 -281l41 478h293l-92 -478h-242z" />
<glyph unicode="&#x2020;" horiz-adv-x="1011" d="M70 709v305l299 -43l-21 340h309l-18 -340l299 43v-305l-299 73l43 -157l-47 -992h-262l-47 992l43 157z" />
<glyph unicode="&#x2021;" horiz-adv-x="1128" d="M80 213v279l356 -19h2l-2 248l-356 -19v279l356 -18l-22 348h313l-22 -348l356 18v-279l-356 19l-3 -248h3l356 19v-279l-356 18l22 -393h-313l22 393z" />
<glyph unicode="&#x2022;" horiz-adv-x="788" d="M131 522q0 103 78 175.5t188 72.5q109 0 185.5 -72.5t76.5 -175.5q0 -104 -76.5 -178t-185.5 -74q-110 0 -188 74t-78 178z" />
<glyph unicode="&#x2026;" horiz-adv-x="1671" d="M61 135q0 75 46.5 124.5t121.5 49.5t119.5 -49.5t44.5 -124.5q0 -62 -48.5 -108.5t-115.5 -46.5q-74 0 -121 45.5t-47 109.5zM672 135q0 75 46.5 124.5t121.5 49.5t119.5 -49.5t44.5 -124.5q0 -62 -48.5 -108.5t-115.5 -46.5q-74 0 -121 45.5t-47 109.5zM1296 135 q0 75 45.5 124.5t120.5 49.5t120.5 -49.5t45.5 -124.5q0 -62 -49.5 -108.5t-116.5 -46.5q-74 0 -120 45.5t-46 109.5z" />
<glyph unicode="&#x202f;" horiz-adv-x="364" />
<glyph unicode="&#x2030;" horiz-adv-x="2426" d="M23 993q0 162 93 250.5t253 93.5q168 5 261 -75.5t93 -241.5q0 -166 -93.5 -256.5t-260.5 -93.5q-165 -2 -255.5 78.5t-90.5 244.5zM276 1012q0 -53 24.5 -81.5t70.5 -25.5q104 3 104 115q0 53 -27 78t-75 22q-50 -2 -73.5 -27.5t-23.5 -80.5zM311 2l690 1282h285 l-688 -1282h-287zM891 297q0 164 92.5 252.5t253.5 93.5q168 5 261 -75.5t93 -241.5q0 -167 -93.5 -258.5t-260.5 -94.5q-165 -2 -255.5 79t-90.5 245zM1143 315q0 -109 94 -106q104 6 104 115q0 106 -104 100q-94 -3 -94 -109zM1690 297q0 164 92.5 252.5t253.5 93.5 q168 5 261 -75.5t93 -241.5q0 -167 -93.5 -258.5t-260.5 -94.5q-165 -2 -255.5 79t-90.5 245zM1942 315q0 -109 94 -106q104 6 104 115q0 106 -104 100q-94 -3 -94 -109z" />
<glyph unicode="&#x2039;" horiz-adv-x="708" d="M14 489l334 359h338l-293 -359l293 -356h-338z" />
<glyph unicode="&#x203a;" horiz-adv-x="663" d="M10 133l293 356l-293 359h307l334 -359l-334 -356h-307z" />
<glyph unicode="&#x205f;" horiz-adv-x="455" />
<glyph unicode="&#x20ac;" horiz-adv-x="1142" d="M39 428v184h151v74h-151v182h182q59 191 207.5 305t357.5 111q71 0 125 -4t88 -9.5t111 -19.5l-49 -231q-268 70 -395 -2q-86 -48 -129 -150h442v-182h-475v-74h475v-184h-434q48 -126 133 -182q103 -68 391 -6l47 -213q-197 -62 -414 -43q-195 16 -317.5 136.5 t-167.5 307.5h-178z" />
<glyph unicode="&#x2122;" horiz-adv-x="1114" d="M47 1151v113h387v-113h-129v-387h-131v387h-127zM420 764l59 500h148l118 -297h3l124 297h146l49 -500h-123l-26 338l-132 -338h-86l-131 332l-30 -332h-119z" />
<glyph unicode="&#xe000;" horiz-adv-x="942" d="M0 0v942h942v-942h-942z" />
</font>
</defs>
</svg>
