<?xml version="1.0" standalone="no"?>
<!DOCTYPE svg PUBLIC "-//W3C//DTD SVG 1.1//EN" "http://www.w3.org/Graphics/SVG/1.1/DTD/svg11.dtd" >
<svg xmlns="http://www.w3.org/2000/svg">
<metadata></metadata>
<defs>
<font id="apolonia_nova_lekka_otregular" horiz-adv-x="972" >
<font-face units-per-em="2048" ascent="1536" descent="-512" />
<missing-glyph horiz-adv-x="471" />
<glyph horiz-adv-x="2048" />
<glyph horiz-adv-x="2048" />
<glyph unicode="&#xd;" horiz-adv-x="2048" />
<glyph unicode=" "  horiz-adv-x="471" />
<glyph unicode="&#x09;" horiz-adv-x="471" />
<glyph unicode="&#xa0;" horiz-adv-x="471" />
<glyph unicode="!" horiz-adv-x="565" d="M213 53q0 33 21.5 55.5t56.5 22.5q34 0 55 -22.5t21 -55.5q0 -29 -22.5 -51t-53.5 -22q-34 0 -56 21.5t-22 51.5zM225 1341h133l-8 -1019h-119z" />
<glyph unicode="&#x22;" horiz-adv-x="530" d="M80 893l41 477h117l-64 -477h-94zM317 893l41 477h117l-63 -477h-95z" />
<glyph unicode="#" horiz-adv-x="1122" d="M100 455v96h207l41 223h-248v96h265l75 414h109l-76 -414h268l76 414h109l-76 -414h166v-96h-182l-41 -223h223v-96h-240l-82 -455h-108l82 455h-269l-82 -455h-108l82 455h-191zM416 551h268l41 223h-268z" />
<glyph unicode="$" horiz-adv-x="1026" d="M94 0l10 113q267 -27 379 -27v557q-153 64 -204 94q-139 82 -158 204q-8 53 4 118q21 116 119 180t223 64h16v233h72v-238q143 -8 291 -20l-12 -111q-246 25 -279 27v-457q44 -18 74 -30.5t70.5 -33.5t68 -40t57 -47t47.5 -58t31 -69.5t15 -83.5q5 -92 -24 -167.5 t-82 -123.5t-119 -75t-138 -29v-451h-72v453l-192 8zM240.5 999.5q-0.5 -20.5 3.5 -38.5t10.5 -34t18.5 -30.5t24 -26.5t29.5 -24t34 -22t38.5 -20.5t40.5 -19t43.5 -18.5v430q-95 -1 -158 -44t-79 -110q-5 -22 -5.5 -42.5zM555 88q238 25 238 248q0 52 -18 95.5t-53.5 76.5 t-74.5 56.5t-92 47.5v-524z" />
<glyph unicode="%" horiz-adv-x="1548" d="M51 999q0 161 83 249t224 93q149 5 231.5 -75.5t82.5 -241.5q0 -165 -82.5 -255t-231.5 -93q-146 -2 -226.5 79t-80.5 244zM162 1006q0 -115 50.5 -172.5t141.5 -57.5q101 0 155 62.5t54 181.5q0 116 -53 171t-152 52q-93 -2 -144.5 -62.5t-51.5 -174.5zM358 2l691 1282 h122l-688 -1282h-125zM870 301q0 161 83 249t225 93q149 5 231 -75.5t82 -241.5q0 -165 -82 -255.5t-231 -93.5q-146 -2 -227 79.5t-81 244.5zM981 307q0 -114 50.5 -171.5t142.5 -57.5q100 0 154 62.5t54 181.5q0 116 -52.5 171t-151.5 52q-93 -2 -145 -63t-52 -175z" />
<glyph unicode="&#x26;" horiz-adv-x="1437" d="M141 336q0 121 89 214.5t235 151.5q-270 120 -270 306q0 139 109 217t269 78q185 0 282.5 -73.5t96.5 -211.5q-3 -184 -276 -303q179 -80 358 -232l195 269l78 -60l-199 -276q186 -183 324 -416h-138q-123 194 -247 324q-89 -119 -159.5 -190t-152 -112.5t-172.5 -41.5 q-85 0 -160 22.5t-134 65.5t-93.5 112.5t-34.5 155.5zM274 358q-2 -122 76 -195.5t217 -74.5q60 -1 119 26.5t115.5 84t85.5 90.5t76 97q7 9 10 13q-201 181 -408 254q-53 -21 -99.5 -47.5t-92 -63t-72 -84.5t-27.5 -100zM319 1022q-1 -97 64.5 -155.5t189.5 -104.5 q121 49 187 107.5t67 142.5q1 97 -64 147.5t-190 50.5q-112 0 -182 -53.5t-72 -134.5z" />
<glyph unicode="'" horiz-adv-x="260" d="M70 946l8 424h135l-37 -424h-106z" />
<glyph unicode="(" horiz-adv-x="583" d="M92 547q0 135 28 264.5t82 245t138 211t190 155.5l50 -77q-165 -125 -261 -330.5t-96 -468.5t96 -468.5t261 -330.5l-50 -78q-140 80 -240.5 220.5t-149 308t-48.5 348.5z" />
<glyph unicode=")" horiz-adv-x="587" d="M10 -252q165 125 261 330.5t96 468.5t-96 468.5t-261 330.5l49 77q141 -80 241.5 -220.5t149 -307.5t48.5 -348t-48.5 -348.5t-149.5 -308t-241 -220.5z" />
<glyph unicode="*" horiz-adv-x="827" d="M49 961l2 88h271l6 10l-150 227l84 49l152 -233h12l143 231l84 -51l-147 -225l6 -10l266 2l4 -88l-276 2l-6 -11l151 -211l-86 -57l-147 219h-15l-159 -215l-82 62l166 202l-6 11z" />
<glyph unicode="+" horiz-adv-x="1130" d="M94 592v110h416v414h113v-414h417v-110h-417v-416h-113v416h-416z" />
<glyph unicode="," horiz-adv-x="423" d="M45 -289q101 216 150 465h131q-53 -228 -172 -465h-109z" />
<glyph unicode="-" horiz-adv-x="729" d="M125 455v110h475v-110h-475z" />
<glyph unicode="." horiz-adv-x="466" d="M152 53q0 33 21.5 55.5t55.5 22.5t55 -22.5t21 -55.5q0 -29 -22.5 -51t-53.5 -22q-34 0 -55.5 21.5t-21.5 51.5z" />
<glyph unicode="/" horiz-adv-x="677" d="M43 -86l459 1458h127l-461 -1458h-125z" />
<glyph unicode="0" horiz-adv-x="1222" d="M145 639q0 140 29 259t85.5 210t147 143t205.5 52q118 0 208.5 -51t146.5 -141.5t84 -209.5t28 -262q0 -137 -29.5 -254.5t-86 -207.5t-146.5 -141.5t-203 -51.5q-115 0 -205.5 51.5t-147.5 141.5t-86.5 207.5t-29.5 254.5zM266 647q0 -116 20.5 -213.5t61.5 -173.5 t109.5 -119t158.5 -43q89 0 156.5 43t107 119.5t59 173t19.5 213.5q0 116 -20 214t-60 175t-107 120.5t-155 43.5q-91 0 -159.5 -42.5t-109.5 -119.5t-61 -174.5t-20 -216.5z" />
<glyph unicode="1" horiz-adv-x="573" d="M16 1049l271 233h82v-1284h-125v1110l-189 -137z" />
<glyph unicode="2" horiz-adv-x="833" d="M14 2v74q4 5 63.5 69.5t143.5 159t160 184.5q49 58 72 86t62 79t58.5 84t41.5 77t31 84t9 80q0 112 -62.5 162.5t-168.5 50.5q-127 0 -309 -66l-23 107q199 70 357 70q70 0 126.5 -15.5t104 -51t74 -99.5t26.5 -154q0 -50 -9 -94t-39.5 -103.5t-64.5 -111.5t-109 -146 t-147 -179t-202 -236h565v-111h-760z" />
<glyph unicode="3" horiz-adv-x="921" d="M55 6l15 115q236 -35 346 -19q123 19 200.5 92t81.5 205q2 63 -18 110t-55.5 72.5t-82.5 43t-99.5 21.5t-105.5 6.5t-101 -0.5q-28 -1 -41 -1v105q68 7 132.5 28.5t120 56t90 89t35.5 119.5q1 72 -53 108.5t-133 38.5q-30 1 -63.5 -3t-69.5 -12t-58.5 -14t-58 -16.5 t-39.5 -11.5l-22 102q13 3 59 16.5t78 22t81.5 16t92.5 7.5q160 0 236.5 -66t76.5 -178q0 -103 -73 -193.5t-183 -130.5q192 -7 288.5 -92t96.5 -233q0 -192 -123 -311t-344 -119q-148 0 -307 26z" />
<glyph unicode="4" horiz-adv-x="907" d="M25 426v100l567 756h125v-747h143v-109h-143v-426h-115v426h-577zM154 535h448v589z" />
<glyph unicode="5" d="M90 8l19 123q627 -114 630 281q0 47 -9 84.5t-34 64t-48 45t-70.5 30.5t-81 18.5t-101 9.5t-107.5 3.5t-123 0.5h-15q13 142 29.5 348t21.5 266h573v-113h-473l-33 -387q84 1 147.5 -2t128.5 -12t111.5 -26t88.5 -45t67.5 -67.5t40 -94.5t14.5 -125q0 -90 -29.5 -167 t-85.5 -135.5t-145 -92t-200 -33.5q-154 0 -316 26z" />
<glyph unicode="6" horiz-adv-x="1067" d="M143 541q-1 65 4 132.5t19 143t37 144t60 132t83.5 109.5t113 73.5t144.5 27.5q117 0 254 -35l-29 -103q-147 32 -210 31q-130 0 -211 -92q-69 -79 -98 -182t-38 -234q79 40 162.5 61.5t163 23.5t150 -21t122.5 -68t80.5 -122.5t24.5 -178.5q-7 -178 -123.5 -288 t-284.5 -115q-90 -2 -162 27.5t-119.5 81.5t-79.5 126t-46.5 154.5t-16.5 171.5zM270 571q-2 -47 1 -99t20 -123.5t46.5 -126t88.5 -92.5t139 -36q134 3 206.5 85.5t78.5 209.5q2 41 -5.5 79.5t-28.5 76.5t-53 65.5t-83.5 43t-116.5 12.5q-32 -1 -64.5 -7t-54.5 -11.5 t-53 -18.5t-42.5 -18.5t-43 -21.5t-35.5 -18z" />
<glyph unicode="7" horiz-adv-x="839" d="M39 1282l778 2l-561 -1284h-135l512 1171h-592z" />
<glyph unicode="8" horiz-adv-x="1093" d="M115 336q0 121 88.5 214.5t234.5 151.5q-270 120 -270 306q0 93 53 161.5t137.5 101t188.5 32.5q185 0 282.5 -73.5t96.5 -211.5q-3 -184 -277 -303q161 -64 248.5 -150.5t87.5 -214.5q0 -113 -63.5 -198.5t-164 -128.5t-220.5 -43q-85 0 -160 22.5t-134 65.5 t-93.5 112.5t-34.5 155.5zM248 358q-2 -122 76 -196t217 -74q148 0 231.5 76t83.5 190q0 58 -24.5 105.5t-71.5 83t-98.5 60.5t-122.5 50q-53 -21 -99.5 -47.5t-92 -63t-72 -84.5t-27.5 -100zM293 1022q-1 -97 64.5 -155.5t189.5 -104.5q121 49 187 107.5t67 142.5 q1 97 -64 147.5t-190 50.5q-112 0 -182 -53.5t-72 -134.5z" />
<glyph unicode="9" horiz-adv-x="1107" d="M129 928q3 114 58.5 199.5t144.5 129t198 46.5q115 4 200 -38.5t134.5 -122t74 -179t26.5 -222.5q1 -66 -3.5 -133t-18.5 -143.5t-36 -144.5t-59 -131.5t-85 -109t-116 -72.5t-149 -27q-126 0 -295 43l22 116q18 -4 61.5 -14t72 -16t67.5 -11t68 -4q79 1 141 41.5 t98.5 100t60 137t32 144t8.5 128.5q-74 -35 -154.5 -54t-160.5 -22.5t-151.5 17t-126 61t-85 113t-27.5 168.5zM250 930q-2 -47 11.5 -90.5t44.5 -82t89.5 -60t136.5 -19.5q63 2 128.5 19.5t93.5 30t82 38.5q1 49 -3.5 98.5t-23 112.5t-50 110t-91 78t-138.5 29 q-132 -4 -203.5 -78t-76.5 -186z" />
<glyph unicode=":" horiz-adv-x="448" d="M152 53q0 33 21.5 55.5t55.5 22.5t55 -22.5t21 -55.5q0 -29 -22.5 -51t-53.5 -22q-34 0 -55.5 21.5t-21.5 51.5zM152 889q0 33 21.5 55.5t55.5 22.5t55 -22.5t21 -55.5q0 -29 -22.5 -51.5t-53.5 -22.5q-34 0 -55.5 22t-21.5 52z" />
<glyph unicode=";" horiz-adv-x="448" d="M4 -289q74 172 150 465h137q-83 -268 -174 -465h-113zM150 889q0 33 21.5 55.5t55.5 22.5t55 -22.5t21 -55.5q0 -29 -22.5 -51.5t-53.5 -22.5q-34 0 -55.5 22t-21.5 52z" />
<glyph unicode="&#x3c;" horiz-adv-x="1191" d="M147 586v114l922 471l-4 -147l-756 -381l756 -383v-143z" />
<glyph unicode="=" horiz-adv-x="1187" d="M100 403v115h990v-115h-990zM100 780v115h990v-115h-990z" />
<glyph unicode="&#x3e;" horiz-adv-x="1130" d="M147 1026v145l922 -471v-114l-917 -469v143l755 383z" />
<glyph unicode="?" horiz-adv-x="776" d="M45 1303q16 4 77.5 22.5t87.5 25t76.5 15t98.5 10.5q126 5 221 -47.5t125 -150.5q11 -35 13 -69.5t-1 -62t-16.5 -59.5t-23.5 -52t-34 -51.5t-36 -45.5t-41 -46.5t-39 -43.5q-83 -93 -118.5 -184t-24.5 -230h-117q-7 70 -1.5 131t22.5 111t40.5 94.5t52 81.5t57 72t55 65 t47 61.5t32.5 61.5t11.5 65t-15.5 72q-23 56 -73 85.5t-106 33.5t-124.5 -7.5t-118.5 -27t-100 -35.5zM274 53q0 33 21.5 55.5t56.5 22.5q34 0 55 -22.5t21 -55.5q0 -29 -22.5 -51t-53.5 -22q-34 0 -56 21.5t-22 51.5z" />
<glyph unicode="@" horiz-adv-x="1640" d="M86 487q0 150 55 284t154 234.5t246 159t321 58.5q192 0 347 -74.5t248 -219t93 -333.5q0 -115 -48 -220t-130.5 -167t-173.5 -55q-101 7 -170 104q-46 -43 -106.5 -72t-112.5 -30q-71 -1 -128 17.5t-94 51t-62 77.5t-35.5 93t-10.5 101q0 69 24 132.5t68.5 114.5 t115.5 82t157 31q82 0 166 -41l106 -37v-393q-1 -62 29.5 -98.5t71.5 -36.5q91 2 158.5 98.5t68.5 235.5q2 111 -36 208.5t-110 171.5t-184.5 117t-251.5 43q-141 0 -264 -48.5t-209.5 -133t-136 -202.5t-49.5 -253q0 -136 47 -254.5t131 -205t208.5 -136t272.5 -49.5 q101 0 176.5 16t159.5 54l8 -102q-166 -68 -344 -68q-174 0 -321 58.5t-246 159t-154 236.5t-55 291zM598 498q0 -45 9.5 -85t30.5 -77.5t62 -60.5t97 -25q124 -5 209 117v348q-95 54 -172 49q-63 -4 -110.5 -29.5t-74 -65t-39 -82.5t-12.5 -89z" />
<glyph unicode="A" horiz-adv-x="1265" d="M12 0l596 1339h115l528 -1339h-145l-182 471h-564l-206 -471h-142zM393 573h504l-238 617h-2z" />
<glyph unicode="B" horiz-adv-x="1183" d="M205 0v1339q38 2 114 6.5t155 8t177 6.5h15q137 0 218 -71q85 -75 85 -199q0 -134 -71.5 -214.5t-217.5 -121.5v-6q201 -3 302.5 -74.5t104.5 -249.5v-5q0 -107 -38 -189q-39 -84 -110 -134t-162.5 -75t-201.5 -25q-43 0 -112 2t-107 2h-151zM332 102l248 -2h8 q152 0 254 76q106 78 110 203q1 13 1 26q1 57 -11 100q-14 52 -40 85t-73.5 52t-102.5 27t-136 11q-20 1 -55 1q-71 0 -203 -3v-576zM334 766h23q92 0 173 14q91 16 164.5 51t114.5 97q37 56 37 129v14q-2 88 -64 139q-60 50 -175 50h-5q-33 -1 -268 -13v-481z" />
<glyph unicode="C" horiz-adv-x="1114" d="M123 690q0 139 43.5 262t121.5 214.5t195 143.5q113 50 246 50h10q29 0 54.5 -1t43 -1t43 -3t34.5 -3.5t38.5 -5.5t34.5 -5.5t42.5 -7.5t43.5 -8l-20 -104q-153 34 -297 34h-23q-99 -2 -179.5 -34.5t-136 -86t-93.5 -126.5t-55 -154.5t-17 -171.5q0 -125 29.5 -230 t87 -186t151 -127.5t213.5 -48.5h18q130 0 310 39l18 -106q-165 -43 -329 -43q-157 0 -278 52.5t-196.5 148t-114 224t-38.5 285.5z" />
<glyph unicode="D" horiz-adv-x="1384" d="M205 1341l430 17q26 2 51 2q253 0 407 -157q169 -172 169 -490q0 -304 -175 -504.5t-442 -208.5q-59 -2 -168.5 -2t-269.5 2zM330 113q154 -3 236 -3q49 0 73 1q106 7 190.5 43.5t141 93.5t94.5 134.5t55.5 161.5t18.5 179v14q-1 97 -27 185q-28 94 -86 170 q-57 78 -155 122q-96 44 -218 43h-6q-197 -4 -317 -12v-1132z" />
<glyph unicode="E" horiz-adv-x="1015" d="M205 4v1335h688v-104h-565v-457h546v-104h-546v-563h573v-109z" />
<glyph unicode="F" horiz-adv-x="985" d="M205 0v1339h688v-102h-565v-479h553v-103h-553v-655h-123z" />
<glyph unicode="G" horiz-adv-x="1384" d="M123 676q0 157 55 287.5t150 216.5t221.5 133t271.5 47q49 0 76.5 -0.5t61.5 -2t51 -3t75 -6.5t105 -9l-8 -108q-55 7 -98.5 11t-70 6.5t-57.5 3.5t-43.5 1h-47h-50.5q-245 0 -404 -160t-159 -419q0 -129 31 -233.5t93.5 -183.5t165 -122t238.5 -43q168 0 301 14v560h121 v-658q-196 -12 -393 -18h-32q-125 0 -227 28q-116 32 -195 92t-131.5 147.5t-76.5 191.5t-24 227z" />
<glyph unicode="H" horiz-adv-x="1357" d="M205 0v1339h123v-544h698v544h125v-1339h-125v684h-698v-684h-123z" />
<glyph unicode="I" horiz-adv-x="532" d="M205 0v1339h123v-1339h-123z" />
<glyph unicode="J" horiz-adv-x="530" d="M-8 -156q49 34 85.5 72.5t59.5 84t37 88t20.5 101t8.5 105t2 117.5v927h123v-958q0 -111 -18 -205t-45.5 -157t-68 -115.5t-76.5 -83.5t-81 -58z" />
<glyph unicode="K" horiz-adv-x="1226" d="M205 0v1339h125v-616l618 616h166l-612 -583q119 -17 174 -40q74 -32 112 -89l431 -627h-152l-381 557q-24 36 -65 62t-93.5 39.5t-97 19.5t-100.5 10v-688h-125z" />
<glyph unicode="L" horiz-adv-x="960" d="M205 0v1339h125v-1230h620v-109h-745z" />
<glyph unicode="M" horiz-adv-x="1820" d="M119 0l145 1339h135l516 -1157h7l512 1157h137l131 -1339h-119l-108 1155l-508 -1155h-107l-502 1139l-118 -1139h-121z" />
<glyph unicode="N" horiz-adv-x="1482" d="M205 0v1339h102l852 -1126h6v1126h115v-1339h-102l-850 1118h-6v-1118h-117z" />
<glyph unicode="O" horiz-adv-x="1439" d="M123 678q0 314 154 498t442 184q194 0 330 -86t202 -238t66 -358q0 -209 -66 -364.5t-202.5 -244.5t-329.5 -89q-192 0 -328 89t-202 244.5t-66 364.5zM254 676q0 -181 49.5 -311t154.5 -203.5t257 -73.5q235 0 353 156t118 432q0 275 -117.5 425t-353.5 150 q-229 0 -345 -150.5t-116 -424.5z" />
<glyph unicode="P" horiz-adv-x="1060" d="M205 0v1339q378 21 442 21h14q171 0 255 -74q85 -74 85 -213v-10q-1 -58 -14.5 -107.5t-34 -87t-56 -69t-69.5 -53.5t-86 -40t-93 -29.5t-104 -21.5t-106.5 -15.5t-111.5 -12.5v-627h-121zM326 737q22 3 67 8.5t73 9t72.5 11t73.5 15t67 21t63 29t51.5 38t41.5 49.5 t25 63q9 33 8 70v8q-1 42 -9.5 73.5t-27 53t-38.5 35.5t-54 21q-33 7 -63 10q-18 2 -42 2q-16 0 -35 -1q-47 -2 -82.5 -4.5t-93 -7t-97.5 -6.5v-498z" />
<glyph unicode="Q" horiz-adv-x="1439" d="M123 678q0 314 154 498t442 184q194 0 330 -86t202 -238t66 -358q0 -230 -83 -397t-241 -244l332 -305h-174l-285 264q-75 -16 -147 -16q-192 0 -328 89t-202 244.5t-66 364.5zM254 678q0 -181 49.5 -311t154.5 -203.5t257 -73.5q235 0 353 156t118 432q0 275 -117.5 425 t-353.5 150q-229 0 -345 -150.5t-116 -424.5z" />
<glyph unicode="R" horiz-adv-x="1157" d="M205 0v1339q312 20 446 19q50 0 76 -2q62 -7 108.5 -24t84.5 -48t57 -83q18 -49 18 -117v-7q-3 -149 -94.5 -238.5t-249.5 -136.5q110 -34 180 -153l320 -549h-152l-299 516q-42 71 -92.5 103t-109.5 33h-24q-50 0 -114 -3q-5 0 -14 -1t-14 -1l2 -647h-129zM334 752 q52 2 104.5 9t115 21t114.5 38t96.5 56.5t70 81.5t25.5 109q0 52 -16 88t-48 56.5t-72 30.5q-38 11 -96 12h-33q-41 0 -81 -2q-56 -2 -128 -7q-34 -3 -52 -4v-489z" />
<glyph unicode="S" horiz-adv-x="1067" d="M98 31l13 112q306 -55 405 -55q144 0 227 65q86 67 86 212q-1 61 -25 109q-26 50 -69.5 84t-100.5 62.5t-118.5 52.5t-122.5 49.5t-114 59.5t-90.5 76.5t-53.5 105.5q-9 36 -9 77q0 31 5 65q13 80 69.5 139.5t131 87t155.5 27.5q140 0 371 -33l-12 -113q-243 35 -334 35 q-101 0 -172 -45t-84 -119q-4 -23 -4 -44q0 -33 10 -61q17 -46 55.5 -77t91.5 -56.5t114 -48t123 -46.5t119 -56.5t101 -72.5t70.5 -101t26.5 -137q0 -98 -34 -176.5t-90.5 -127t-127 -74.5t-146.5 -27q-152 0 -467 51z" />
<glyph unicode="T" d="M8 1227v112h955v-112h-414v-1227h-133v1227h-408z" />
<glyph unicode="U" horiz-adv-x="1404" d="M184 692v647h131l-2 -641q0 -83 14 -163t48.5 -161.5t86.5 -142.5t134.5 -99t185.5 -38q85 0 285 17v1228h131v-1341q-49 -2 -123.5 -7t-142.5 -8t-146 -3q-129 0 -232 39t-171 105t-113.5 158t-65.5 194t-20 216z" />
<glyph unicode="V" horiz-adv-x="1226" d="M16 1339h136l458 -1169h8l467 1169h134l-547 -1339h-129z" />
<glyph unicode="W" horiz-adv-x="1906" d="M8 1339h131l365 -1157h8l389 1157h141l363 -1155h8l361 1155h129l-437 -1339h-129l-368 1161h-8l-390 -1161h-135z" />
<glyph unicode="X" horiz-adv-x="1089" d="M12 0l463 723l-393 616h137l324 -510l325 510h129l-389 -610l467 -729h-139l-397 621l-396 -621h-131z" />
<glyph unicode="Y" horiz-adv-x="1034" d="M14 1339h148l352 -575h12l361 575h139l-444 -700v-639h-129v643z" />
<glyph unicode="Z" horiz-adv-x="937" d="M25 0v51l725 1184h-600l2 104h776v-41l-731 -1187h729v-111h-901z" />
<glyph unicode="[" horiz-adv-x="604" d="M205 -330v1774h385v-113h-258v-1546h258v-115h-385z" />
<glyph unicode="\" horiz-adv-x="651" d="M43 1372h123l459 -1458h-121z" />
<glyph unicode="]" horiz-adv-x="600" d="M10 -215h258v1546h-258v113h385v-1774h-385v115z" />
<glyph unicode="^" horiz-adv-x="1159" d="M29 309l489 955h129l488 -953h-144l-407 822l-420 -824h-135z" />
<glyph unicode="_" horiz-adv-x="1019" d="M10 -129h1008v-109h-1008v109z" />
<glyph unicode="`" horiz-adv-x="376" d="M55 1325l127 27l142 -310l-97 -20z" />
<glyph unicode="a" horiz-adv-x="978" d="M80 258q0 69 21.5 123t51.5 88.5t85 59t96.5 36t114 18t110.5 7t110 0.5h9.5h8.5h9v69q0 110 -46.5 158.5t-164.5 48.5q-121 0 -284 -63l-21 96q96 33 167.5 48.5t154.5 15.5q94 0 156 -20.5t96 -65t47.5 -103t13.5 -145.5v-436q0 -6 0.5 -37t1.5 -42.5t4 -35.5 t8.5 -42.5t14.5 -35.5h-105q-20 30 -32 88q-31 -15 -80 -39t-67.5 -32t-51 -19.5t-60.5 -14.5t-67 -3q-138 0 -218 74.5t-83 203.5zM205 276q0 -96 58.5 -145t148.5 -49q108 0 284 96v318q-185 0 -244 -7q-192 -21 -234 -134q-13 -35 -13 -79z" />
<glyph unicode="b" horiz-adv-x="1028" d="M164 0v1389h115v-545q180 117 305 117q88 0 155 -39t107 -107t60 -154t20 -186q0 -111 -27.5 -200t-84 -157t-150 -104.5t-218.5 -36.5q-93 0 -282 23zM279 78q78 -10 157 -10q365 0 365 405q0 68 -11.5 131t-38 124t-77.5 97.5t-121 36.5q-119 -8 -274 -117v-667z" />
<glyph unicode="c" horiz-adv-x="827" d="M102 467q0 138 51.5 249.5t152 178t231.5 66.5q108 0 256 -37l-23 -97q-156 35 -213 35q-161 0 -246.5 -109t-85.5 -298q0 -167 78 -268t207 -101q119 0 262 94l43 -90q-179 -110 -323 -110q-83 0 -152.5 28.5t-123.5 86t-84 152.5t-30 220z" />
<glyph unicode="d" horiz-adv-x="1056" d="M102 453q0 78 15.5 151t49 138.5t81.5 113.5t117 76.5t151 28.5q38 0 78 -5.5t97 -17t87 -16.5v467h115v-1164q0 -174 27 -225h-113q-12 24 -20.5 59.5t-8.5 55.5q-18 -12 -53 -37t-55.5 -38t-52.5 -28.5t-67 -22.5t-77 -7q-70 0 -131 27.5t-104.5 74.5t-74.5 108 t-46 127.5t-15 133.5zM227 469q0 -176 79.5 -277.5t207.5 -101.5q34 0 64 8.5t68.5 33t58.5 40t73 57.5v598q-147 35 -231 35q-153 0 -236.5 -101.5t-83.5 -291.5z" />
<glyph unicode="e" horiz-adv-x="989" d="M102 463q0 81 13.5 152.5t44.5 136t78.5 110t120 72.5t163.5 27q182 0 279 -113.5t102 -306.5q0 -57 -2 -86l-672 -4q0 -165 89.5 -264t226.5 -99q49 0 97.5 16t80 34.5t94.5 60.5l51 -93q-111 -69 -153 -87q-80 -34 -170 -37q-200 0 -321.5 132t-121.5 349zM231 545 l562 4q0 313 -279 313q-269 -3 -283 -317z" />
<glyph unicode="f" horiz-adv-x="522" d="M2 850v90h152v98q3 100 26.5 168.5t68 105.5t100 52.5t132.5 15.5q27 0 41 -2l-8 -94q-14 2 -41 2q-117 0 -160 -57.5t-43 -204.5v-84h181v-90h-181v-850h-116v850h-152z" />
<glyph unicode="g" horiz-adv-x="1085" d="M127 463q0 111 25.5 198t80.5 156t151.5 106.5t229.5 37.5q98 0 277 -23l-2 -2l24 4v-940q0 -246 -99 -361.5t-290 -115.5q-68 0 -168.5 24t-158.5 54l34 92q166 -70 287 -70q277 0 277 352v131q-48 -31 -74.5 -47t-70.5 -37.5t-87.5 -30.5t-91.5 -9q-71 0 -130 29 t-98 76.5t-65.5 111t-38.5 129.5t-12 135zM252 467q0 -52 6.5 -101.5t24 -100t44 -88.5t69.5 -63.5t98 -27.5q108 0 301 125v647q-106 8 -152 8q-91 0 -158 -18t-121.5 -61t-83 -123.5t-28.5 -196.5z" />
<glyph unicode="h" horiz-adv-x="1056" d="M164 0v1389h117v-551q198 123 340 123q272 0 272 -297v-664h-117v637q0 225 -172 225q-63 0 -149.5 -34t-173.5 -91v-737h-117z" />
<glyph unicode="i" horiz-adv-x="444" d="M147 1182q0 33 21.5 55.5t56.5 22.5q34 0 55 -22.5t21 -55.5q0 -29 -22.5 -51.5t-53.5 -22.5q-34 0 -56 22t-22 52zM164 0v940h117v-940h-117z" />
<glyph unicode="j" horiz-adv-x="444" d="M27 -369q137 128 137 410v899h117v-899q0 -288 -187 -465zM147 1182q0 33 21.5 55.5t56.5 22.5q34 0 55 -22.5t21 -55.5q0 -29 -22.5 -51.5t-53.5 -22.5q-34 0 -56 22t-22 52z" />
<glyph unicode="k" horiz-adv-x="933" d="M164 0v1389h117v-895q279 261 440 446h143q-172 -191 -415 -395q125 -22 203.5 -59.5t118.5 -85t71 -124.5q13 -33 35 -125.5t47 -150.5h-129q-20 50 -40 134t-30 112q-44 122 -135.5 171.5t-308.5 71.5v-489h-117z" />
<glyph unicode="l" horiz-adv-x="444" d="M164 223v1166h117v-1164q0 -50 1.5 -77.5t11 -69.5t28.5 -78h-117q-19 35 -28.5 77t-11 69.5t-1.5 76.5z" />
<glyph unicode="m" horiz-adv-x="1677" d="M143 940h105q20 -34 26 -111q2 1 28.5 14.5t34 17.5t34.5 17t38.5 18t37.5 16t41.5 16t39 13t41 11t38 6t38.5 3q177 0 232 -119q107 58 189 88.5t173 30.5q139 0 206.5 -76.5t67.5 -239.5v-645h-114v633q0 119 -39.5 173t-145.5 54q-57 0 -121.5 -21t-97.5 -38.5 t-98 -55.5q4 -31 4 -124v-621h-117v637q0 50 -1.5 76.5t-10.5 60t-26 49.5t-49.5 27.5t-80.5 11.5q-89 0 -335 -137v-725h-117v719q0 143 -21 221z" />
<glyph unicode="n" horiz-adv-x="1075" d="M143 940h105q21 -41 26 -106q19 9 70 36t73 37t61 26t72 22t68 6q184 0 256 -132q18 -34 26.5 -84t9.5 -77.5t1 -89.5v-578h-114v637q0 118 -47 171.5t-150 53.5q-100 0 -319 -127v-735h-117v739q0 127 -21 201z" />
<glyph unicode="o" horiz-adv-x="1099" d="M102 457q0 238 118 368t325 136q452 0 452 -469q0 -244 -117 -375.5t-335 -136.5q-443 0 -443 477zM227 463q0 -196 84 -292.5t226 -96.5q156 0 248 103t92 312q0 100 -25 174t-70.5 117.5t-103.5 64.5t-129 21q-151 -5 -236.5 -107.5t-85.5 -295.5z" />
<glyph unicode="p" horiz-adv-x="1046" d="M145 940h105q5 -11 8.5 -21.5t6 -23t3.5 -20.5t2 -23t2 -21q186 130 316 130q120 0 201.5 -62t118 -164t36.5 -237q0 -147 -53 -263.5t-158 -185.5t-246 -69q-47 0 -86.5 8.5t-75 22t-49.5 16.5v-492h-112v1241q0 100 -19 164zM276 135q121 -57 207 -57 q153 0 247.5 119.5t94.5 294.5q0 172 -65.5 271t-192.5 99q-107 0 -291 -137v-590z" />
<glyph unicode="q" horiz-adv-x="1026" d="M102 463q3 327 207 444q60 35 139 47q54 7 102 7q23 0 45 -1q67 -6 155 -22v2h112v-1393h-112v547q-174 -114 -304 -114q-69 0 -127.5 29.5t-97.5 77.5t-66.5 111.5t-40 130t-12.5 134.5zM231 471q0 -247 117 -340q43 -34 94 -43q17 -2 35 -2q34 0 69 10q54 16 101.5 40 t102.5 61v641q-116 28 -204 28q-112 0 -181 -45q-72 -47 -103 -142.5t-31 -207.5z" />
<glyph unicode="r" horiz-adv-x="595" d="M141 940h103q27 -58 32 -127q9 9 36.5 37t37 37t33 28t39.5 26t41 13.5t51 6.5q25 0 82 -11l-14 -96q-20 2 -58 2q-34 0 -58 -5t-47 -20t-37 -27t-46 -43t-55 -52v-709h-117v801q0 65 -23 139z" />
<glyph unicode="s" horiz-adv-x="788" d="M55 47l27 100q204 -65 301 -65q90 0 153.5 43.5t63.5 134.5q0 49 -28 86t-72.5 61t-99 45t-109 43.5t-100 49.5t-74.5 71t-31 101q0 62 21.5 108t53.5 71t77 40.5t82.5 20t80.5 4.5q85 0 234 -27l-23 -92q-132 26 -204 26q-99 0 -156 -30t-57 -109q0 -38 28.5 -68 t73.5 -51t100 -41t110.5 -45t101.5 -56t76 -80t32 -112q0 -133 -85.5 -212.5t-254.5 -79.5q-120 0 -322 63z" />
<glyph unicode="t" horiz-adv-x="630" d="M8 850v90h160l2 205h106v-205h242v-90h-239v-440q-1 -228 75 -300q35 -33 90 -33q63 0 152 44l29 -88q-109 -53 -207 -53q-121 0 -187.5 99t-66.5 286v485h-156z" />
<glyph unicode="u" horiz-adv-x="1064" d="M164 301v639h123v-606q0 -131 51 -189.5t168 -58.5q105 0 278 104v750h117v-784q0 -75 31 -156h-107q-19 35 -34 88q-93 -52 -155 -76.5t-92.5 -28t-90.5 -3.5q-157 0 -223 85t-66 236z" />
<glyph unicode="v" horiz-adv-x="1034" d="M143 455v485h121v-438q0 -245 209 -412q203 133 272 307q10 27 17.5 58t12.5 56.5t7 65.5t2 63q0 6 1 13q1 22 -1 59q-2 49 -3 70t-4.5 79.5t-4.5 78.5h121q12 -218 12 -356q0 -87 -30 -171.5t-77.5 -150t-109 -123t-122.5 -96t-120 -63.5q-148 92 -225.5 216.5 t-77.5 258.5z" />
<glyph unicode="w" horiz-adv-x="1640" d="M164 254l2 686h117v-668q0 -87 48.5 -138.5t145.5 -51.5q75 0 141.5 37.5t153.5 118.5l4 702h117v-657q0 -93 45 -148t115 -55q77 0 136 29.5t93.5 74.5t56.5 106.5t29.5 117.5t7.5 116q1 26 1 55q0 145 -21 361h121q2 -37 8.5 -111t10 -131.5t3.5 -113.5 q0 -138 -17 -235.5t-69 -176.5q-60 -90 -157 -141t-205 -51q-97 0 -159 35.5t-108 121.5q-89 -77 -170.5 -117t-179.5 -40q-125 0 -197.5 67t-72.5 207z" />
<glyph unicode="x" horiz-adv-x="993" d="M127 0v170q7 244 272 346q-121 51 -179 116.5t-58 131.5v176h117l-3 -127v-6q0 -69 43 -128q45 -62 173 -118q41 15 79 38t73.5 55.5t57 78t21.5 96.5v111h121v-113q-1 -59 -23 -107t-62 -84t-80.5 -60.5t-96.5 -49.5q64 -29 101.5 -49t71 -47t49.5 -52t28 -66.5t15 -88 t3 -119.5v-104h-119v125q0 59 -3 97.5t-14.5 72.5t-25.5 55t-45.5 44t-64.5 40t-91 43q-90 -43 -138.5 -84t-74.5 -108t-26 -170v-115h-121z" />
<glyph unicode="y" horiz-adv-x="1077" d="M174 301v639h115v-614q0 -124 54 -184t149 -60q111 0 296 90v768h115v-940q1 -19 1 -38q0 -215 -97 -324q-103 -115 -289 -115h-6q-67 0 -166.5 24t-157.5 54l35 90q92 -39 172 -57q58 -13 112 -13q21 0 41 2q74 7 126 44t83 114.5t31 193.5v101q-196 -91 -303 -96h-21 q-76 0 -132 20q-62 22 -96 67t-48 101.5t-14 132.5z" />
<glyph unicode="z" horiz-adv-x="788" d="M43 0v53q25 56 260 389.5t272 405.5h-430v92h586l-2 -49q-62 -119 -263 -398t-265 -395h512v-98h-670z" />
<glyph unicode="{" horiz-adv-x="636" d="M33 520v76q84 10 132 37.5t64 70.5t18.5 102t-3.5 132q-9 186 1 257q20 142 125 199q92 50 261 50l-2 -84q-89 0 -148.5 -19.5t-87.5 -53t-42 -79.5t-11.5 -99.5t4.5 -111.5q0 -10 0.5 -15.5t1 -14t0.5 -15.5q6 -87 2.5 -155.5t-20 -117t-55 -78t-103.5 -38.5v-10 q65 -8 104 -37t55.5 -77t20 -116t-3.5 -155q-9 -146 -6 -187q10 -130 99 -179q68 -38 192 -38v-90q-122 0 -202.5 24.5t-120 69t-57.5 106.5t-14.5 137.5t7.5 162.5q8 74 5.5 134t-19 103.5t-65 71t-132.5 37.5z" />
<glyph unicode="|" horiz-adv-x="505" d="M205 -471v2007h112v-2007h-112z" />
<glyph unicode="}" horiz-adv-x="626" d="M10 -236q90 0 150.5 20t88.5 54.5t42 81.5t11 100.5t-5 112.5q-1 23 -2 35q-7 87 -3.5 155t20 116t55.5 77t104 37v10q-65 9 -103.5 38.5t-55 78t-20 117t2.5 155.5q7 148 5 182q-8 131 -89 182q-69 44 -201 44v84q120 0 200 -24.5t118.5 -68.5t57 -105.5t16.5 -136 t-4 -158.5q-1 -9 -1 -13q-6 -73 -3.5 -132t18.5 -102t64 -70.5t132 -37.5v-76q-84 -10 -132.5 -37.5t-65 -71t-19 -103.5t5.5 -134q4 -87 7.5 -162.5t-14.5 -137.5t-57.5 -106.5t-120 -69t-202.5 -24.5v90z" />
<glyph unicode="~" horiz-adv-x="1228" d="M74 412q25 98 72 153t105 67.5t126.5 2.5t140 -36t142 -53.5t135 -46t117 -17.5t90.5 37t53 112l104 -37q-24 -98 -70 -152.5t-103.5 -67.5t-125.5 -4t-139 35t-141.5 53t-135.5 45t-118.5 18t-92.5 -36t-55 -110z" />
<glyph unicode="&#xa7;" d="M102 678q0 118 140 213q-30 22 -50 67.5t-20 94.5q0 126 97.5 201t246.5 75q31 0 55 -2t47 -7t35.5 -9t40 -13.5t41.5 -13.5l-33 -88q-109 37 -178 41q-57 3 -112.5 -14.5t-95.5 -60t-40 -101.5q0 -24 6 -44.5t13 -35t25 -29t29.5 -23t40.5 -20.5t43 -17t52 -17.5 t54 -18.5q153 -51 234.5 -120.5t78.5 -178.5q-1 -69 -29 -117.5t-86 -105.5q28 -27 50 -71.5t22 -98.5q0 -94 -54 -161t-134 -96t-172 -26q-53 2 -101 12.5t-77 21.5t-74 32l26 98q42 -27 109 -46.5t133 -18.5q94 2 161 47t70 135q3 77 -41 112t-183 94q-6 3 -9.5 4.5 t-9.5 4t-11 4.5q-169 71 -222 103q-97 60 -114 147q-4 22 -4 47zM205 676q0 -36 29 -68.5t81.5 -60.5t106 -51t123.5 -52t112 -51q83 65 86 158q1 50 -28 88.5t-81 65t-104.5 45t-116.5 40.5t-100 41q-32 -27 -45 -38.5t-31.5 -32.5t-25 -40.5t-6.5 -43.5z" />
<glyph unicode="&#xa8;" horiz-adv-x="815" d="M164 1243q0 33 22.5 54.5t53.5 21.5t52 -21.5t21 -54.5q0 -28 -21.5 -48.5t-53.5 -20.5q-29 0 -51.5 20.5t-22.5 48.5zM512 1243q0 33 23 54.5t55 21.5q31 0 52.5 -21.5t21.5 -54.5q0 -28 -22 -48.5t-54 -20.5q-30 0 -53 21t-23 48z" />
<glyph unicode="&#xa9;" horiz-adv-x="1036" d="M154 1006q0 150 100.5 254t275.5 104q188 0 282.5 -98t94.5 -260q0 -157 -97 -258t-280 -101q-96 0 -170 29.5t-118 80.5t-66 114t-22 135zM231 1006q0 -140 81 -219.5t220 -79.5q148 0 225 78t77 221q0 62 -18 116t-54 96t-95 66.5t-135 24.5q-144 0 -222.5 -83.5 t-78.5 -219.5zM340 1010q0 99 58.5 165.5t148.5 69.5q58 6 129 -16l-14 -47q-56 16 -111 16q-62 0 -100.5 -55t-38.5 -135q0 -71 32.5 -122t98.5 -55q23 -2 46.5 4t37.5 13t41 22l14 -47q-69 -41 -135 -45q-89 -5 -148 53.5t-59 178.5z" />
<glyph unicode="&#xab;" horiz-adv-x="1019" d="M92 489l334 359h123l-293 -359l293 -356h-123zM502 489l334 359h122l-292 -359l292 -356h-122z" />
<glyph unicode="&#xac;" horiz-adv-x="1003" d="M74 614v97h794v-461h-104v364h-690z" />
<glyph unicode="&#xad;" horiz-adv-x="729" d="M125 455v110h475v-110h-475z" />
<glyph unicode="&#xae;" horiz-adv-x="1056" d="M154 1006q0 150 100.5 254t275.5 104q188 0 282.5 -98t94.5 -260q0 -157 -97 -258t-280 -101q-96 0 -170 29.5t-118 80.5t-66 114t-22 135zM231 1006q0 -140 81 -219.5t220 -79.5q148 0 225 78t77 221q0 62 -18 116t-54 96t-95 66.5t-135 24.5q-144 0 -222.5 -83.5 t-78.5 -219.5zM387 782v467l121 6l31 2q40 1 66.5 -5t46.5 -28.5t20 -62.5q0 -44 -36 -74t-83 -45v-2q41 -12 53 -30l129 -228h-65l-111 201q-19 42 -119 35v-236h-53zM440 1059q172 14 172 98q0 70 -160 50q-8 -1 -12 -1v-147z" />
<glyph unicode="&#xb0;" horiz-adv-x="702" d="M74 1157q0 112 75.5 192.5t198.5 80.5q134 0 207.5 -77t73.5 -196q0 -109 -75 -189.5t-206 -80.5q-132 0 -203 79.5t-71 190.5zM174 1157q0 -87 48.5 -136.5t129.5 -49.5q86 0 134.5 50.5t48.5 135.5q0 87 -45.5 138t-137.5 51q-89 0 -133.5 -49t-44.5 -140z" />
<glyph unicode="&#xb1;" horiz-adv-x="1200" d="M102 152v104h1006v-104h-1006zM135 797v110h416v414h113v-414h417v-110h-417v-416h-113v416h-416z" />
<glyph unicode="&#xb4;" horiz-adv-x="425" d="M84 1044q104 159 162 306h135q-83 -156 -195 -306h-102z" />
<glyph unicode="&#xb6;" horiz-adv-x="1220" d="M119 942q0 120 30.5 203.5t80 120.5t111.5 58.5t125.5 17.5t121.5 -3q38 -2 55 -2l473 6l-4 -69l-174 -2v-1485h-84l2 1485l-149 -2l-5 -1483h-84l3 696q-14 3 -43 9q-59 12 -90.5 19.5t-88 26t-89 37.5t-74 53.5t-63.5 76t-38 102.5t-16 135z" />
<glyph unicode="&#xb7;" horiz-adv-x="454" d="M152 502q0 33 21.5 55.5t55.5 22.5t55 -22.5t21 -55.5q0 -29 -22.5 -51.5t-53.5 -22.5q-34 0 -55.5 22t-21.5 52z" />
<glyph unicode="&#xb8;" horiz-adv-x="450" d="M86 -418q59 24 91 64.5t32 74.5q0 26 -5.5 46.5t-20.5 38t-23 25.5t-32 24.5t-28 19.5l97 123h116l-90 -111q105 -71 105 -157q0 -80 -58 -142t-164 -88z" />
<glyph unicode="&#xbb;" horiz-adv-x="1069" d="M92 133l293 356l-293 359h123l334 -359l-334 -356h-123zM502 133l293 356l-293 359h123l333 -359l-333 -356h-123z" />
<glyph unicode="&#xc1;" horiz-adv-x="1277" d="M12 0l596 1339h115l528 -1339h-145l-182 471h-564l-206 -471h-142zM393 573h504l-238 617h-2zM604 1458q105 161 162 305h135q-83 -157 -194 -305h-103z" />
<glyph unicode="&#xc2;" horiz-adv-x="1277" d="M12 0l596 1339h115l528 -1339h-145l-182 471h-564l-206 -471h-142zM393 573h504l-238 617h-2zM432 1753h107l118 -213h11l120 213h103l-189 -293h-84z" />
<glyph unicode="&#xc4;" horiz-adv-x="1265" d="M12 0l596 1339h115l528 -1339h-145l-182 471h-564l-206 -471h-142zM393 573h504l-238 617h-2zM414 1532q0 33 22 54.5t53 21.5t52.5 -21.5t21.5 -54.5q0 -28 -22 -49t-54 -21q-29 0 -51 21t-22 49zM762 1532q0 33 23 54.5t55 21.5q31 0 52 -21.5t21 -54.5 q0 -28 -21.5 -49t-53.5 -21q-29 0 -52.5 21t-23.5 49z" />
<glyph unicode="&#xc7;" horiz-adv-x="1175" d="M123 690q0 139 43.5 262t121.5 214.5t195 143.5t256 50q29 0 54.5 -1t43 -1t43 -3t34.5 -3.5t38.5 -5.5t34.5 -5.5t42.5 -7.5t43.5 -8l-20 -104q-165 37 -320 34q-99 -2 -179.5 -34.5t-136 -86t-93.5 -126.5t-55 -154.5t-17 -171.5q0 -125 29.5 -230t87 -186t151 -127.5 t213.5 -48.5q136 -3 328 39l18 -106q-99 -25 -209 -37l-79 -99q104 -70 104 -157q0 -80 -57.5 -142t-163.5 -88l-21 82q59 24 91 64.5t32 74.5q0 26 -5.5 46.5t-20.5 38.5t-22 25t-32 24.5t-28 19.5l82 105q-157 0 -278 52.5t-196.5 148t-114 224t-38.5 285.5z" />
<glyph unicode="&#xc9;" horiz-adv-x="1021" d="M123 4v1335h688v-104h-565v-457h547v-104h-547v-563h573v-109zM430 1458q105 161 162 305h135q-81 -153 -195 -305h-102z" />
<glyph unicode="&#xcb;" horiz-adv-x="966" d="M205 4v1335h688v-104h-565v-457h546v-104h-546v-563h573v-109zM324 1526q0 33 22 54.5t53 21.5t52.5 -21.5t21.5 -54.5q0 -28 -22 -49t-54 -21q-29 0 -51 21t-22 49zM672 1526q0 33 23 54.5t55 21.5q31 0 52 -21.5t21 -54.5q0 -28 -21.5 -49t-53.5 -21q-29 0 -52.5 21 t-23.5 49z" />
<glyph unicode="&#xcd;" horiz-adv-x="532" d="M205 0v1339h123v-1339h-123zM217 1458q105 161 162 305h135q-81 -153 -195 -305h-102z" />
<glyph unicode="&#xce;" horiz-adv-x="534" d="M39 1460l186 293h84l189 -293h-103l-121 213h-10l-119 -213h-106zM205 0v1339h123v-1339h-123z" />
<glyph unicode="&#xd3;" horiz-adv-x="1437" d="M123 678q0 314 154 498t442 184q194 0 330 -86t202 -238t66 -358q0 -209 -66 -364.5t-202.5 -244.5t-329.5 -89q-192 0 -328 89t-202 244.5t-66 364.5zM254 676q0 -181 49.5 -311t154.5 -203.5t257 -73.5q235 0 353 156t118 432q0 275 -117.5 425t-353.5 150 q-229 0 -345 -150.5t-116 -424.5zM664 1440q103 157 161 305h136q-81 -153 -195 -305h-102z" />
<glyph unicode="&#xd4;" horiz-adv-x="1468" d="M123 678q0 314 154 498t442 184q194 0 330 -86t202 -238t66 -358q0 -209 -66 -364.5t-202.5 -244.5t-329.5 -89q-192 0 -328 89t-202 244.5t-66 364.5zM254 676q0 -181 49.5 -311t154.5 -203.5t257 -73.5q235 0 353 156t118 432q0 275 -117.5 425t-353.5 150 q-229 0 -345 -150.5t-116 -424.5zM510 1460l186 293h84l189 -293h-103l-121 213h-10l-119 -213h-106z" />
<glyph unicode="&#xd6;" horiz-adv-x="1437" d="M123 678q0 314 154 498t442 184q194 0 330 -86t202 -238t66 -358q0 -209 -66 -364.5t-202.5 -244.5t-329.5 -89q-192 0 -328 89t-202 244.5t-66 364.5zM254 676q0 -181 49.5 -311t154.5 -203.5t257 -73.5q235 0 353 156t118 432q0 275 -117.5 425t-353.5 150 q-229 0 -345 -150.5t-116 -424.5zM483 1542q0 33 22.5 54.5t53.5 21.5t52.5 -21.5t21.5 -54.5q0 -28 -22 -48.5t-54 -20.5q-29 0 -51.5 20.5t-22.5 48.5zM831 1542q0 33 23 54.5t55 21.5q31 0 52.5 -21.5t21.5 -54.5q0 -28 -22 -48.5t-54 -20.5q-30 0 -53 21t-23 48z" />
<glyph unicode="&#xda;" horiz-adv-x="1400" d="M184 692v647h131l-2 -641q0 -83 14 -163t48.5 -161.5t86.5 -142.5t134.5 -99t185.5 -38q85 0 285 17v1228h131v-1341q-49 -2 -123.5 -7t-142.5 -8t-146 -3q-129 0 -232 39t-171 105t-113.5 158t-65.5 194t-20 216zM659 1458q105 161 162 305h135q-83 -157 -194 -305h-103 z" />
<glyph unicode="&#xdc;" horiz-adv-x="1409" d="M184 692v647h131l-2 -641q0 -83 14 -163t48.5 -161.5t86.5 -142.5t134.5 -99t185.5 -38q85 0 285 17v1228h131v-1341q-49 -2 -123.5 -7t-142.5 -8t-146 -3q-129 0 -232 39t-171 105t-113.5 158t-65.5 194t-20 216zM444 1538q0 33 22.5 54.5t53.5 21.5t52.5 -21.5 t21.5 -54.5q0 -28 -22 -49t-54 -21q-29 0 -51.5 21t-22.5 49zM793 1538q0 33 22.5 54.5t54.5 21.5q31 0 52.5 -21.5t21.5 -54.5q0 -28 -22 -49t-54 -21q-29 0 -52 21t-23 49z" />
<glyph unicode="&#xdd;" horiz-adv-x="1034" d="M14 1339h148l352 -575h12l361 575h139l-444 -700v-639h-129v643zM461 1458q105 161 162 305h135q-81 -153 -195 -305h-102z" />
<glyph unicode="&#xdf;" horiz-adv-x="1046" d="M61 840v98h146v117q0 130 63 217.5t189 109.5q100 18 182 -20.5t123 -117t29 -173.5q-11 -16 -39 -53.5t-38 -54t-18.5 -45t-3.5 -56.5q4 -22 32 -57.5t63 -77.5t70 -93t56.5 -119t18.5 -140q-4 -90 -35.5 -159t-83 -111.5t-107.5 -67t-122 -37.5q-64 -12 -83 12t-14 78 q173 24 245.5 97.5t74.5 199.5q1 65 -17.5 121t-47.5 96t-59 73.5t-58.5 69t-40.5 66.5q-11 28 -12 56.5t4.5 50t18 46.5t23.5 40.5t26.5 37t21.5 31.5q10 97 -37.5 153t-118.5 56q-83 0 -139 -54.5t-56 -154.5l2 -1075h-112v840h-146z" />
<glyph unicode="&#xe1;" horiz-adv-x="978" d="M80 258q0 69 21.5 123t51.5 88.5t85 59t96.5 36t114 18t110.5 7t110 0.5h9.5h8.5h9v69q0 110 -46.5 158.5t-164.5 48.5q-121 0 -284 -63l-21 96q96 33 167.5 48.5t154.5 15.5q94 0 156 -20.5t96 -65t47.5 -103t13.5 -145.5v-436q0 -6 0.5 -37t1.5 -42.5t4 -35.5 t8.5 -42.5t14.5 -35.5h-105q-20 30 -32 88q-31 -15 -80 -39t-67.5 -32t-51 -19.5t-60.5 -14.5t-67 -3q-138 0 -218 74.5t-83 203.5zM205 276q0 -96 58.5 -145t148.5 -49q108 0 284 96v318q-185 0 -244 -7q-192 -21 -234 -134q-13 -35 -13 -79zM387 1044q104 159 162 306h135 q-83 -156 -195 -306h-102z" />
<glyph unicode="&#xe2;" horiz-adv-x="978" d="M80 258q0 69 21.5 123t51.5 88.5t85 59t96.5 36t114 18t110.5 7t110 0.5h9.5h8.5h9v69q0 110 -46.5 158.5t-164.5 48.5q-121 0 -284 -63l-21 96q96 33 167.5 48.5t154.5 15.5q94 0 156 -20.5t96 -65t47.5 -103t13.5 -145.5v-436q0 -6 0.5 -37t1.5 -42.5t4 -35.5 t8.5 -42.5t14.5 -35.5h-105q-20 30 -32 88q-31 -15 -80 -39t-67.5 -32t-51 -19.5t-60.5 -14.5t-67 -3q-138 0 -218 74.5t-83 203.5zM205 276q0 -96 58.5 -145t148.5 -49q108 0 284 96v318q-185 0 -244 -7q-192 -21 -234 -134q-13 -35 -13 -79zM252 1063l186 293h84l189 -293 h-103l-121 213h-10l-119 -213h-106z" />
<glyph unicode="&#xe4;" horiz-adv-x="978" d="M80 258q0 69 21.5 123t51.5 88.5t85 59t96.5 36t114 18t110.5 7t110 0.5h9.5h8.5h9v69q0 110 -46.5 158.5t-164.5 48.5q-121 0 -284 -63l-21 96q96 33 167.5 48.5t154.5 15.5q94 0 156 -20.5t96 -65t47.5 -103t13.5 -145.5v-436q0 -6 0.5 -37t1.5 -42.5t4 -35.5 t8.5 -42.5t14.5 -35.5h-105q-20 30 -32 88q-31 -15 -80 -39t-67.5 -32t-51 -19.5t-60.5 -14.5t-67 -3q-138 0 -218 74.5t-83 203.5zM205 276q0 -96 58.5 -145t148.5 -49q108 0 284 96v318q-185 0 -244 -7q-192 -21 -234 -134q-13 -35 -13 -79zM256 1176q0 33 22 54t54 21 q31 0 52.5 -21t21.5 -54q0 -28 -22 -49t-54 -21q-29 0 -51.5 21t-22.5 49zM604 1176q0 33 23 54t55 21q31 0 52.5 -21t21.5 -54q0 -28 -22 -49t-54 -21q-29 0 -52.5 21t-23.5 49z" />
<glyph unicode="&#xe7;" horiz-adv-x="847" d="M102 467q0 138 51.5 249.5t152 178t231.5 66.5q108 0 256 -37l-23 -97q-156 35 -213 35q-161 0 -246.5 -109t-85.5 -298q0 -167 78 -268t207 -101q119 0 262 94l43 -90q-112 -68 -205 -92l-88 -111q105 -71 105 -157q0 -80 -57.5 -142t-163.5 -88l-21 82q59 24 91 64.5 t32 74.5q0 26 -5.5 46.5t-20.5 38t-23 25.5t-32 24.5t-28 19.5l82 105q-82 2 -149.5 31t-119.5 86.5t-81 152t-29 217.5z" />
<glyph unicode="&#xe9;" horiz-adv-x="987" d="M102 463q0 81 13.5 152.5t44.5 136t78.5 110t120 72.5t163.5 27q182 0 279 -113.5t102 -306.5q0 -57 -2 -86l-672 -4q0 -165 89.5 -264t226.5 -99q49 0 97.5 16t80 34.5t94.5 60.5l51 -93q-111 -69 -153 -87q-80 -34 -170 -37q-200 0 -321.5 132t-121.5 349zM231 545 l562 4q0 313 -279 313q-269 -3 -283 -317zM438 1044q104 159 162 306h135q-85 -161 -194 -306h-103z" />
<glyph unicode="&#xeb;" horiz-adv-x="997" d="M102 463q0 81 13.5 152.5t44.5 136t78.5 110t120 72.5t163.5 27q182 0 279 -113.5t102 -306.5q0 -57 -2 -86l-672 -4q0 -165 89.5 -264t226.5 -99q49 0 97.5 16t80 34.5t94.5 60.5l51 -93q-111 -69 -153 -87q-80 -34 -170 -37q-200 0 -321.5 132t-121.5 349zM231 545 l562 4q0 313 -279 313q-269 -3 -283 -317zM276 1182q0 33 22 54t54 21q31 0 52.5 -21t21.5 -54q0 -28 -22 -49t-54 -21q-29 0 -51.5 21t-22.5 49zM625 1182q0 33 22.5 54t54.5 21q31 0 52.5 -21t21.5 -54q0 -28 -22 -49t-54 -21q-29 0 -52 21t-23 49z" />
<glyph unicode="&#xed;" horiz-adv-x="444" d="M164 0v946h117v-946h-117zM180 1044q104 159 162 306h135q-85 -161 -194 -306h-103z" />
<glyph unicode="&#xee;" horiz-adv-x="454" d="M6 1063l187 293h83l189 -293h-103l-120 213h-11l-118 -213h-107zM172 0v946h117v-946h-117z" />
<glyph unicode="&#xf3;" horiz-adv-x="1103" d="M102 457q0 238 118 368t325 136q452 0 452 -469q0 -244 -117 -375.5t-335 -136.5q-443 0 -443 477zM227 463q0 -196 84 -292.5t226 -96.5q156 0 248 103t92 312q0 100 -25 174t-70.5 117.5t-103.5 64.5t-129 21q-151 -5 -236.5 -107.5t-85.5 -295.5zM481 1044 q104 159 162 306h135q-85 -161 -194 -306h-103z" />
<glyph unicode="&#xf4;" horiz-adv-x="1101" d="M102 457q0 238 118 368t325 136q452 0 452 -469q0 -244 -117 -375.5t-335 -136.5q-443 0 -443 477zM227 463q0 -196 84 -292.5t226 -96.5q156 0 248 103t92 312q0 100 -25 174t-70.5 117.5t-103.5 64.5t-129 21q-151 -5 -236.5 -107.5t-85.5 -295.5zM334 1063l186 293h84 l189 -293h-103l-121 213h-10l-119 -213h-106z" />
<glyph unicode="&#xf6;" horiz-adv-x="1097" d="M102 457q0 238 118 368t325 136q452 0 452 -469q0 -244 -117 -375.5t-335 -136.5q-443 0 -443 477zM227 463q0 -196 84 -292.5t226 -96.5q156 0 248 103t92 312q0 100 -25 174t-70.5 117.5t-103.5 64.5t-129 21q-151 -5 -236.5 -107.5t-85.5 -295.5zM291 1190 q0 33 22.5 54.5t53.5 21.5t52 -21.5t21 -54.5q0 -28 -21.5 -49t-53.5 -21q-29 0 -51.5 21t-22.5 49zM639 1190q0 33 23 54.5t55 21.5q31 0 52.5 -21.5t21.5 -54.5q0 -28 -22 -49t-54 -21q-29 0 -52.5 21t-23.5 49z" />
<glyph unicode="&#xf7;" horiz-adv-x="1013" d="M84 465v92h844v-92h-844zM436 199q0 33 21.5 55t56.5 22q34 0 55 -22t21 -55q0 -29 -22.5 -51.5t-53.5 -22.5q-34 0 -56 22t-22 52zM436 829q0 33 21.5 55.5t56.5 22.5q34 0 55 -22.5t21 -55.5q0 -29 -22.5 -51t-53.5 -22q-34 0 -56 21.5t-22 51.5z" />
<glyph unicode="&#xfa;" horiz-adv-x="1064" d="M162 301v639h123v-606q0 -131 51 -189.5t168 -58.5q105 0 278 104v750h117v-784q0 -75 31 -156h-107q-21 39 -35 88q-71 -40 -119 -62.5t-88 -32.5t-62 -11.5t-68 -1.5q-157 0 -223 85t-66 236zM457 1044q102 155 161 306h136q-82 -156 -195 -306h-102z" />
<glyph unicode="&#xfc;" horiz-adv-x="1064" d="M162 301v639h123v-606q0 -131 51 -189.5t168 -58.5q105 0 278 104v750h117v-784q0 -75 31 -156h-107q-21 39 -35 88q-71 -40 -119 -62.5t-88 -32.5t-62 -11.5t-68 -1.5q-157 0 -223 85t-66 236zM281 1180q0 33 22 54t53 21t52.5 -21t21.5 -54q0 -28 -22 -49t-54 -21 q-29 0 -51 21t-22 49zM629 1180q0 33 23 54t55 21q31 0 52 -21t21 -54q0 -28 -21.5 -49t-53.5 -21q-29 0 -52.5 21t-23.5 49z" />
<glyph unicode="&#xfd;" horiz-adv-x="1067" d="M174 301v639h115v-614q0 -124 54 -184t149 -60q111 0 296 90v768h115v-940q9 -244 -96 -361.5t-295 -115.5q-67 0 -166.5 24t-157.5 54l35 90q92 -39 172 -57t153.5 -11t125.5 44t83 114.5t31 193.5v101q-196 -91 -303 -96q-90 -3 -152.5 19.5t-96.5 67.5t-48 101.5 t-14 132.5zM453 1044q102 155 161 306h136q-82 -156 -195 -306h-102z" />
<glyph unicode="&#x102;" horiz-adv-x="1265" d="M12 0l596 1339h115l528 -1339h-145l-182 471h-564l-206 -471h-142zM393 573h504l-238 617h-2zM430 1710h88q2 -59 25 -101.5t56 -61.5t71.5 -18.5t71.5 20t56 62t25 99.5h86q3 -102 -46.5 -173t-121 -87.5t-143.5 -1t-121.5 86.5t-46.5 175z" />
<glyph unicode="&#x103;" horiz-adv-x="978" d="M80 258q0 69 21.5 123t51.5 88.5t85 59t96.5 36t114 18t110.5 7t110 0.5h9.5h8.5h9v69q0 110 -46.5 158.5t-164.5 48.5q-121 0 -284 -63l-21 96q96 33 167.5 48.5t154.5 15.5q94 0 156 -20.5t96 -65t47.5 -103t13.5 -145.5v-436q0 -6 0.5 -37t1.5 -42.5t4 -35.5 t8.5 -42.5t14.5 -35.5h-105q-20 30 -32 88q-31 -15 -80 -39t-67.5 -32t-51 -19.5t-60.5 -14.5t-67 -3q-138 0 -218 74.5t-83 203.5zM205 276q0 -96 58.5 -145t148.5 -49q108 0 284 96v318q-185 0 -244 -7q-192 -21 -234 -134q-13 -35 -13 -79zM264 1343h88q2 -59 25 -101.5 t56 -61.5t71.5 -18.5t71.5 20t56 62t25 99.5h86q3 -102 -46.5 -173t-121 -87.5t-143.5 -1t-121.5 86.5t-46.5 175z" />
<glyph unicode="&#x104;" horiz-adv-x="1263" d="M12 0l596 1339h115l528 -1339h-30q-84 -107 -120 -162t-54 -98q-34 -79 15 -128.5t148 -37.5l-10 -82q-128 -13 -203 16q-90 34 -96 127q-2 37 9 74t44.5 88.5t61 87.5t90.5 115l-182 471h-564l-206 -471h-142zM393 573h504l-238 617h-2z" />
<glyph unicode="&#x105;" horiz-adv-x="983" d="M80 258q0 69 21.5 123t51.5 88.5t85 59t96.5 36t114 18t110.5 7t110 0.5h9.5h8.5h9v69q0 110 -46.5 158.5t-164.5 48.5q-121 0 -284 -63l-21 96q96 33 167.5 48.5t154.5 15.5q94 0 156 -20.5t96 -65t47.5 -103t13.5 -145.5v-436q0 -6 0.5 -37t1.5 -42.5t4 -35.5 t8.5 -42.5t14.5 -35.5h-2q-56 -73 -90 -126.5t-43 -72t-27 -61.5q-34 -79 15.5 -128.5t148.5 -37.5l-10 -82q-128 -13 -203 16q-90 34 -96 127q-2 37 9 74t44 88t61 88t90 115h-2q-20 30 -32 88q-31 -15 -80 -39t-67.5 -32t-51 -19.5t-60.5 -14.5t-67 -3q-138 0 -218 74.5 t-83 203.5zM205 276q0 -96 58.5 -145t148.5 -49q108 0 284 96v318q-185 0 -244 -7q-192 -21 -234 -134q-13 -35 -13 -79z" />
<glyph unicode="&#x106;" horiz-adv-x="1161" d="M123 690q0 139 43.5 262t121.5 214.5t195 143.5t256 50q29 0 54.5 -1t43 -1t43 -3t34.5 -3.5t38.5 -5.5t34.5 -5.5t42.5 -7.5t43.5 -8l-20 -104q-165 37 -320 34q-99 -2 -179.5 -34.5t-136 -86t-93.5 -126.5t-55 -154.5t-17 -171.5q0 -125 29.5 -230t87 -186t151 -127.5 t213.5 -48.5q136 -3 328 39l18 -106q-165 -43 -329 -43q-157 0 -278 52.5t-196.5 148t-114 224t-38.5 285.5zM670 1458q103 157 161 305h136q-81 -153 -195 -305h-102z" />
<glyph unicode="&#x107;" horiz-adv-x="854" d="M102 467q0 138 51.5 249.5t152 178t231.5 66.5q108 0 256 -37l-23 -97q-156 35 -213 35q-161 0 -246.5 -109t-85.5 -298q0 -167 78 -268t207 -101q119 0 262 94l43 -90q-179 -110 -323 -110q-83 0 -152.5 28.5t-123.5 86t-84 152.5t-30 220zM469 1044q104 159 162 306 h135q-82 -156 -195 -306h-102z" />
<glyph unicode="&#x10c;" horiz-adv-x="1198" d="M123 690q0 139 43.5 262t121.5 214.5t195 143.5t256 50q29 0 54.5 -1t43 -1t43 -3t34.5 -3.5t38.5 -5.5t34.5 -5.5t42.5 -7.5t43.5 -8l-20 -104q-165 37 -320 34q-99 -2 -179.5 -34.5t-136 -86t-93.5 -126.5t-55 -154.5t-17 -171.5q0 -125 29.5 -230t87 -186t151 -127.5 t213.5 -48.5q136 -3 328 39l18 -106q-165 -43 -329 -43q-157 0 -278 52.5t-196.5 148t-114 224t-38.5 285.5zM512 1753h106l119 -213h11l120 213h103l-189 -293h-84z" />
<glyph unicode="&#x10d;" horiz-adv-x="813" d="M72 467q0 212 118.5 353t315.5 141q108 0 256 -37l-23 -97q-156 35 -213 35q-161 0 -246 -109t-85 -298q0 -167 77.5 -268t206.5 -101q119 0 262 94l43 -90q-179 -110 -323 -110q-83 0 -152.5 28.5t-123 86t-83.5 152.5t-30 220zM266 1339h107l119 -213h10l121 213h102 l-188 -292h-84z" />
<glyph unicode="&#x10e;" horiz-adv-x="1382" d="M205 1341l430 17q289 17 458 -155t169 -490q0 -304 -175 -504.5t-442 -208.5q-118 -5 -438 0zM330 113q246 -5 309 -2q106 7 190.5 43.5t141 93.5t94.5 134.5t55.5 161.5t18.5 179q2 105 -26.5 198.5t-86 170.5t-155.5 121.5t-224 43.5q-197 -4 -317 -12v-1132zM387 1753 h107l118 -213h11l120 213h103l-189 -293h-84z" />
<glyph unicode="&#x10f;" horiz-adv-x="1202" d="M102 453q0 78 15.5 151t49 138.5t81.5 113.5t117 76.5t151 28.5q38 0 78 -5.5t97 -17t87 -16.5v467h115v-1164q0 -174 27 -225h-113q-12 24 -20.5 59.5t-8.5 55.5q-18 -12 -53 -37t-55.5 -38t-52.5 -28.5t-67 -22.5t-77 -7q-70 0 -131 27.5t-104.5 74.5t-74.5 108 t-46 127.5t-15 133.5zM227 469q0 -176 79.5 -277.5t207.5 -101.5q34 0 64 8.5t68.5 33t58.5 40t73 57.5v598q-147 35 -231 35q-153 0 -236.5 -101.5t-83.5 -291.5zM1044 911l41 478h117l-63 -478h-95z" />
<glyph unicode="&#x110;" horiz-adv-x="1558" d="M37 657v107h168v577l430 17q289 17 458 -155t169 -490q0 -304 -175 -504.5t-442 -208.5q-118 -5 -438 0l-2 657h-168zM330 113q246 -5 309 -2q106 7 190.5 43.5t141 93.5t94.5 134.5t55.5 161.5t18.5 179q2 105 -26.5 198.5t-86 170.5t-155.5 121.5t-224 43.5 q-197 -4 -317 -12v-481h442v-107h-442v-544z" />
<glyph unicode="&#x111;" horiz-adv-x="1054" d="M102 453q0 78 15.5 151t49 138.5t81.5 113.5t117 76.5t151 28.5q38 0 78 -5.5t97 -17t87 -16.5v194h-268v92h268v181h115v-181h133v-92h-133v-891q0 -174 27 -225h-113q-12 24 -20.5 59.5t-8.5 55.5q-18 -12 -53 -37t-55.5 -38t-52.5 -28.5t-67 -22.5t-77 -7 q-70 0 -131 27.5t-104.5 74.5t-74.5 108t-46 127.5t-15 133.5zM227 469q0 -176 79.5 -277.5t207.5 -101.5q34 0 64 8.5t68.5 33t58.5 40t73 57.5v598q-147 35 -231 35q-153 0 -236.5 -101.5t-83.5 -291.5z" />
<glyph unicode="&#x118;" horiz-adv-x="978" d="M205 4v1335h688v-104h-565v-457h546v-104h-546v-563h573v-109h-4q-89 -115 -126 -170t-56 -100q-34 -79 15.5 -128.5t148.5 -37.5l-11 -82q-127 -13 -202 16q-91 34 -97 127q-4 68 40 140.5t157 214.5q11 13 16 20z" />
<glyph unicode="&#x119;" horiz-adv-x="1003" d="M102 463q0 81 13.5 152.5t44.5 136t78.5 110t120 72.5t163.5 27q182 0 279 -113.5t102 -306.5q0 -57 -2 -86l-672 -4q0 -165 89.5 -264t226.5 -99q49 0 97.5 16t80 34.5t94.5 60.5l51 -93q-78 -51 -133 -77q-172 -222 -200 -289q-34 -79 15 -128.5t148 -37.5l-10 -82 q-128 -13 -203 16q-90 34 -96 127q-4 65 42.5 141.5t154.5 209.5q-28 -4 -41 -4q-200 0 -321.5 132t-121.5 349zM231 545l562 4q0 313 -279 313q-269 -3 -283 -317z" />
<glyph unicode="&#x11a;" horiz-adv-x="966" d="M205 4v1335h688v-104h-565v-457h546v-104h-546v-563h573v-109zM350 1747h107l118 -213h11l121 213h102l-188 -293h-84z" />
<glyph unicode="&#x11b;" horiz-adv-x="1005" d="M102 463q0 81 13.5 152.5t44.5 136t78.5 110t120 72.5t163.5 27q182 0 279 -113.5t102 -306.5q0 -57 -2 -86l-672 -4q0 -165 89.5 -264t226.5 -99q49 0 97.5 16t80 34.5t94.5 60.5l51 -93q-111 -69 -153 -87q-80 -34 -170 -37q-200 0 -321.5 132t-121.5 349zM231 545 l562 4q0 313 -279 313q-269 -3 -283 -317zM285 1339h106l119 -213h10l121 213h102l-188 -292h-84z" />
<glyph unicode="&#x139;" horiz-adv-x="970" d="M205 0v1339h125v-1230h620v-109h-745zM244 1458q105 161 162 305h135q-81 -153 -195 -305h-102z" />
<glyph unicode="&#x13a;" horiz-adv-x="444" d="M164 223v1166h117v-1164q0 -50 1.5 -77.5t11 -69.5t28.5 -78h-117q-19 35 -28.5 77t-11 69.5t-1.5 76.5zM184 1460q105 161 162 305h135q-83 -157 -194 -305h-103z" />
<glyph unicode="&#x13d;" horiz-adv-x="952" d="M205 0v1339h125v-1230h620v-109h-745zM764 860l41 477h117l-64 -477h-94z" />
<glyph unicode="&#x13e;" horiz-adv-x="587" d="M164 223v1166h117v-1164q0 -50 1.5 -77.5t11 -69.5t28.5 -78h-117q-19 35 -28.5 77t-11 69.5t-1.5 76.5zM418 911l41 478h116l-63 -478h-94z" />
<glyph unicode="&#x141;" horiz-adv-x="1081" d="M0 469v119l328 123v628h125v-581l387 145v-119l-387 -145v-530h620v-109h-745v592z" />
<glyph unicode="&#x142;" horiz-adv-x="526" d="M18 494v112l187 137v646h117v-560l192 144v-113l-192 -143v-492q0 -52 1 -78t10.5 -69t28.5 -78h-116q-19 35 -28.5 77t-11 69.5t-1.5 76.5v408z" />
<glyph unicode="&#x143;" horiz-adv-x="1486" d="M205 0v1339h102l852 -1126h6v1126h115v-1339h-102l-850 1118h-6v-1118h-117zM727 1442q105 161 162 305h135q-81 -153 -195 -305h-102z" />
<glyph unicode="&#x144;" horiz-adv-x="1081" d="M154 940h104q22 -43 27 -106q19 9 70 36t73 37t61 26t72 22t68 6q184 0 256 -132q18 -34 26.5 -84t9.5 -77.5t1 -89.5v-578h-115v637q0 118 -47 171.5t-150 53.5q-100 0 -319 -127v-735h-117v739q0 131 -20 201zM547 1044q104 159 162 306h135q-82 -156 -195 -306h-102z " />
<glyph unicode="&#x147;" horiz-adv-x="1486" d="M205 0v1339h102l852 -1126h6v1126h115v-1339h-102l-850 1118h-6v-1118h-117zM537 1753h106l119 -213h10l121 213h102l-188 -293h-84z" />
<glyph unicode="&#x148;" horiz-adv-x="1075" d="M143 940h105q21 -41 26 -106q19 9 70 36t73 37t61 26t72 22t68 6q184 0 256 -132q18 -34 26.5 -84t9.5 -77.5t1 -89.5v-578h-114v637q0 118 -47 171.5t-150 53.5q-100 0 -319 -127v-735h-117v739q0 127 -21 201zM324 1339h106l119 -213h10l121 213h102l-188 -292h-84z " />
<glyph unicode="&#x150;" horiz-adv-x="1437" d="M123 678q0 314 154 498t442 184q194 0 330 -86t202 -238t66 -358q0 -209 -66 -364.5t-202.5 -244.5t-329.5 -89q-192 0 -328 89t-202 244.5t-66 364.5zM254 676q0 -181 49.5 -311t154.5 -203.5t257 -73.5q235 0 353 156t118 432q0 275 -117.5 425t-353.5 150 q-229 0 -345 -150.5t-116 -424.5zM487 1458q6 10 32.5 50t35.5 53.5t30 47.5t31.5 53.5t24 47.5t23.5 53h135q-92 -167 -203 -305h-109zM809 1458q134 194 178 305h139q-85 -155 -206 -305h-111z" />
<glyph unicode="&#x151;" horiz-adv-x="1101" d="M102 457q0 238 118 368t325 136q452 0 452 -469q0 -244 -117 -375.5t-335 -136.5q-443 0 -443 477zM227 463q0 -196 84 -292.5t226 -96.5q156 0 248 103t92 312q0 100 -25 174t-70.5 117.5t-103.5 64.5t-129 21q-151 -5 -236.5 -107.5t-85.5 -295.5zM315 1044 q6 10 28 43.5t30 45.5t26.5 41t28 45.5t23 41t23 46t18.5 43.5h135q-93 -170 -203 -306h-109zM637 1044q133 192 178 306h139q-87 -159 -206 -306h-111z" />
<glyph unicode="&#x154;" horiz-adv-x="1228" d="M205 0v1339q427 27 522 17q62 -7 108.5 -24t84.5 -48t57 -83t18 -124q-3 -149 -94.5 -238.5t-249.5 -136.5q110 -34 180 -153l320 -549h-152l-299 516q-42 71 -92.5 103t-109.5 33t-138 -3q-5 0 -14 -1t-14 -1l2 -647h-129zM334 752q52 2 104.5 9t115 21t114.5 38 t96.5 56.5t70 81.5t25.5 109q0 52 -16 88t-48 56.5t-71.5 31t-97 11.5t-113 -1.5t-128.5 -7.5q-34 -3 -52 -4v-489zM537 1458q103 157 161 305h136q-81 -153 -195 -305h-102z" />
<glyph unicode="&#x155;" horiz-adv-x="587" d="M141 940h103q27 -58 32 -127q9 9 36.5 37t37 37t33 28t39.5 26t41 13.5t51 6.5q25 0 82 -11l-14 -96q-20 2 -58 2q-34 0 -58 -5t-47 -20t-37 -27t-46 -43t-55 -52v-709h-117v801q0 65 -23 139zM291 1044q104 159 162 306h135q-83 -156 -195 -306h-102z" />
<glyph unicode="&#x158;" horiz-adv-x="1153" d="M205 0v1339q427 27 522 17q62 -7 108.5 -24t84.5 -48t57 -83t18 -124q-3 -149 -94.5 -238.5t-249.5 -136.5q110 -34 180 -153l320 -549h-152l-299 516q-42 71 -92.5 103t-109.5 33t-138 -3q-5 0 -14 -1t-14 -1l2 -647h-129zM334 752q52 2 104.5 9t115 21t114.5 38 t96.5 56.5t70 81.5t25.5 109q0 52 -16 88t-48 56.5t-71.5 31t-97 11.5t-113 -1.5t-128.5 -7.5q-34 -3 -52 -4v-489zM338 1753h106l119 -213h10l121 213h103l-189 -293h-84z" />
<glyph unicode="&#x159;" horiz-adv-x="600" d="M141 940h103q27 -58 32 -127q9 9 36.5 37t37 37t33 28t39.5 26t41 13.5t51 6.5q25 0 82 -11l-14 -96q-20 2 -58 2q-34 0 -58 -5t-47 -20t-37 -27t-46 -43t-55 -52v-709h-117v801q0 65 -23 139zM141 1339h107l119 -213h10l121 213h102l-188 -292h-84z" />
<glyph unicode="&#x15a;" horiz-adv-x="1075" d="M98 31l13 112q306 -55 405 -55q144 0 227 65t86 207q1 64 -24.5 114.5t-69.5 84t-101 62t-118.5 52.5t-122.5 49.5t-114 59.5t-90.5 76.5t-53.5 105.5t-4 142q13 80 69.5 139.5t131 87t155.5 27.5q140 0 371 -33l-12 -113q-243 35 -334 35q-101 0 -172 -45t-84 -119 q-11 -59 6 -105t55.5 -77t91.5 -56.5t114 -48t123 -46.5t119 -56.5t101 -72.5t70.5 -101t26.5 -137q0 -98 -34 -176.5t-90.5 -127t-127 -74.5t-146.5 -27q-152 0 -467 51zM485 1442q105 161 162 305h135q-83 -157 -194 -305h-103z" />
<glyph unicode="&#x15b;" horiz-adv-x="817" d="M55 47l27 100q204 -65 301 -65q90 0 153.5 43.5t63.5 134.5q0 49 -28 86t-72.5 61t-99 45t-109 43.5t-100 49.5t-74.5 71t-31 101q0 62 21.5 108t53.5 71t77 40.5t82.5 20t80.5 4.5q85 0 234 -27l-23 -92q-132 26 -204 26q-99 0 -156 -30t-57 -109q0 -38 28.5 -68 t73.5 -51t100 -41t110.5 -45t101.5 -56t76 -80t32 -112q0 -133 -85.5 -212.5t-254.5 -79.5q-120 0 -322 63zM356 1044q104 159 162 306h135q-85 -161 -194 -306h-103z" />
<glyph unicode="&#x160;" horiz-adv-x="1064" d="M98 31l13 112q306 -55 405 -55q144 0 227 65t86 207q1 64 -24.5 114.5t-69.5 84t-101 62t-118.5 52.5t-122.5 49.5t-114 59.5t-90.5 76.5t-53.5 105.5t-4 142q13 80 69.5 139.5t131 87t155.5 27.5q140 0 371 -33l-12 -113q-243 35 -334 35q-101 0 -172 -45t-84 -119 q-11 -59 6 -105t55.5 -77t91.5 -56.5t114 -48t123 -46.5t119 -56.5t101 -72.5t70.5 -101t26.5 -137q0 -98 -34 -176.5t-90.5 -127t-127 -74.5t-146.5 -27q-152 0 -467 51zM313 1753h107l119 -213h10l121 213h102l-188 -293h-84z" />
<glyph unicode="&#x161;" horiz-adv-x="817" d="M55 47l27 100q204 -65 301 -65q90 0 153.5 43.5t63.5 134.5q0 49 -28 86t-72.5 61t-99 45t-109 43.5t-100 49.5t-74.5 71t-31 101q0 62 21.5 108t53.5 71t77 40.5t82.5 20t80.5 4.5q85 0 234 -27l-23 -92q-132 26 -204 26q-99 0 -156 -30t-57 -109q0 -38 28.5 -68 t73.5 -51t100 -41t110.5 -45t101.5 -56t76 -80t32 -112q0 -133 -85.5 -212.5t-254.5 -79.5q-120 0 -322 63zM178 1339h107l118 -213h11l121 213h102l-188 -292h-84z" />
<glyph unicode="&#x162;" d="M8 1227v112h955v-112h-414v-1227h-133v1227h-408zM264 -393q105 161 162 305h135q-83 -157 -194 -305h-103z" />
<glyph unicode="&#x163;" horiz-adv-x="616" d="M8 850v90h160l2 205h106v-205h242v-90h-239v-440q0 -228 75.5 -300t241.5 11l29 -88q-109 -53 -207 -53q-121 0 -187.5 99t-66.5 286v485h-156zM184 -393q105 161 162 305h135q-83 -157 -194 -305h-103z" />
<glyph unicode="&#x164;" horiz-adv-x="966" d="M8 1227v112h955v-112h-414v-1227h-133v1227h-408zM254 1753h106l119 -213h10l121 213h103l-189 -293h-84z" />
<glyph unicode="&#x165;" horiz-adv-x="704" d="M8 850v90h160l2 205h106v-205h242v-90h-239v-440q0 -228 75.5 -300t241.5 11l29 -88q-109 -53 -207 -53q-121 0 -187.5 99t-66.5 286v485h-156zM500 991l41 477h116l-63 -477h-94z" />
<glyph unicode="&#x16e;" horiz-adv-x="1402" d="M184 692v647h131l-2 -641q0 -83 14 -163t48.5 -161.5t86.5 -142.5t134.5 -99t185.5 -38q85 0 285 17v1228h131v-1341q-49 -2 -123.5 -7t-142.5 -8t-146 -3q-129 0 -232 39t-171 105t-113.5 158t-65.5 194t-20 216zM473 1536q0 83 59.5 144t155.5 61q102 0 158.5 -57.5 t56.5 -147.5q0 -79 -58.5 -139t-156.5 -60q-99 0 -157 60t-58 139zM571 1538q0 -58 29.5 -89.5t83.5 -31.5q123 0 123 123t-123 123q-113 0 -113 -125z" />
<glyph unicode="&#x16f;" horiz-adv-x="1060" d="M162 301v639h123v-606q0 -131 51 -189.5t168 -58.5q105 0 278 104v750h117v-784q0 -75 31 -156h-107q-21 39 -35 88q-71 -40 -119 -62.5t-88 -32.5t-62 -11.5t-68 -1.5q-157 0 -223 85t-66 236zM328 1225q0 83 59.5 144t155.5 61q102 0 158.5 -57.5t56.5 -147.5 q0 -79 -58.5 -139t-156.5 -60q-99 0 -157 60t-58 139zM426 1227q0 -58 29.5 -89.5t83.5 -31.5q123 0 123 123t-123 123q-113 0 -113 -125z" />
<glyph unicode="&#x170;" horiz-adv-x="1402" d="M184 692v647h131l-2 -641q0 -83 14 -163t48.5 -161.5t86.5 -142.5t134.5 -99t185.5 -38q85 0 285 17v1228h131v-1341q-49 -2 -123.5 -7t-142.5 -8t-146 -3q-129 0 -232 39t-171 105t-113.5 158t-65.5 194t-20 216zM477 1458q4 7 28 43t30.5 46t25.5 40.5t27.5 46 t22.5 40.5t23.5 46t18.5 43h135q-94 -171 -202 -305h-109zM799 1458q134 194 178 305h139q-83 -152 -207 -305h-110z" />
<glyph unicode="&#x171;" horiz-adv-x="1064" d="M162 301v639h123v-606q0 -131 51 -189.5t168 -58.5q105 0 278 104v750h117v-784q0 -75 31 -156h-107q-21 39 -35 88q-71 -40 -119 -62.5t-88 -32.5t-62 -11.5t-68 -1.5q-157 0 -223 85t-66 236zM303 1044q3 4 25 37.5t26.5 40.5t22.5 36t24.5 40t21 36t22 40t17 36 t17.5 40h135q-95 -174 -202 -306h-109zM625 1044q133 192 178 306h139q-85 -155 -207 -306h-110z" />
<glyph unicode="&#x179;" d="M25 0v51l725 1184h-600l2 104h776v-41l-731 -1187h729v-111h-901zM485 1442q105 161 162 305h135q-83 -157 -194 -305h-103z" />
<glyph unicode="&#x17a;" horiz-adv-x="788" d="M43 0v53q25 56 260 389.5t272 405.5h-430v92h586l-2 -49q-62 -119 -263 -398t-265 -395h512v-98h-670zM362 1044q104 159 162 306h135q-85 -161 -194 -306h-103z" />
<glyph unicode="&#x17b;" d="M25 0v51l725 1184h-600l2 104h776v-41l-731 -1187h729v-111h-901zM463 1532q0 33 21.5 55.5t56.5 22.5q34 0 54.5 -22.5t20.5 -55.5q0 -30 -22 -52t-53 -22q-34 0 -56 22t-22 52z" />
<glyph unicode="&#x17c;" horiz-adv-x="763" d="M43 0v53q25 56 260 389.5t272 405.5h-430v92h586l-2 -49q-62 -119 -263 -398t-265 -395h512v-98h-670zM383 1182q0 33 21.5 55.5t56.5 22.5q34 0 55 -22.5t21 -55.5q0 -29 -22.5 -51.5t-53.5 -22.5q-34 0 -56 22t-22 52z" />
<glyph unicode="&#x17d;" d="M25 0v51l725 1184h-600l2 104h776v-41l-731 -1187h729v-111h-901zM326 1753h106l119 -213h10l121 213h102l-188 -293h-84z" />
<glyph unicode="&#x17e;" horiz-adv-x="788" d="M43 0v53q25 56 260 389.5t272 405.5h-430v92h586l-2 -49q-62 -119 -263 -398t-265 -395h512v-98h-670zM225 1339h107l119 -213h10l121 213h102l-188 -292h-84z" />
<glyph unicode="&#x218;" horiz-adv-x="1056" d="M98 31l13 112q306 -55 405 -55q144 0 227 65t86 207q1 64 -24.5 114.5t-69.5 84t-101 62t-118.5 52.5t-122.5 49.5t-114 59.5t-90.5 76.5t-53.5 105.5t-4 142q13 80 69.5 139.5t131 87t155.5 27.5q140 0 371 -33l-12 -113q-243 35 -334 35q-101 0 -172 -45t-84 -119 q-11 -59 6 -105t55.5 -77t91.5 -56.5t114 -48t123 -46.5t119 -56.5t101 -72.5t70.5 -101t26.5 -137q0 -98 -34 -176.5t-90.5 -127t-127 -74.5t-146.5 -27q-152 0 -467 51zM307 -393q105 161 162 305h135q-83 -157 -194 -305h-103z" />
<glyph unicode="&#x219;" horiz-adv-x="802" d="M55 47l27 100q204 -65 301 -65q90 0 153.5 43.5t63.5 134.5q0 49 -28 86t-72.5 61t-99 45t-109 43.5t-100 49.5t-74.5 71t-31 101q0 62 21.5 108t53.5 71t77 40.5t82.5 20t80.5 4.5q85 0 234 -27l-23 -92q-132 26 -204 26q-99 0 -156 -30t-57 -109q0 -38 28.5 -68 t73.5 -51t100 -41t110.5 -45t101.5 -56t76 -80t32 -112q0 -133 -85.5 -212.5t-254.5 -79.5q-120 0 -322 63zM174 -393q105 161 162 305h135q-81 -153 -195 -305h-102z" />
<glyph unicode="&#x2c7;" horiz-adv-x="614" d="M78 1339h106l119 -213h10l121 213h103l-189 -292h-84z" />
<glyph unicode="&#x2d8;" horiz-adv-x="811" d="M170 1343h88q2 -59 25 -101.5t56 -61.5t71.5 -18.5t71.5 20t56 62t25 99.5h86q3 -102 -46.5 -173t-121 -87.5t-143.5 -1t-121.5 86.5t-46.5 175z" />
<glyph unicode="&#x2d9;" horiz-adv-x="454" d="M150 1182q0 33 21.5 55.5t55.5 22.5t55 -22.5t21 -55.5q0 -29 -22.5 -51.5t-53.5 -22.5q-34 0 -55.5 22t-21.5 52z" />
<glyph unicode="&#x2db;" horiz-adv-x="358" d="M14 -365q-2 36 8.5 72t44 88t58.5 85t89 113q3 4 5 6.5t5 6t5 6.5h115q-92 -121 -129 -175t-55 -97q-34 -79 15.5 -128.5t148.5 -37.5l-11 -82q-127 -13 -202 16q-91 34 -97 127z" />
<glyph unicode="&#x2dd;" horiz-adv-x="843" d="M109 1044q3 4 25 37.5t26.5 40.5t22.5 36t24.5 40t21 36t22 40t17 36t17.5 40h135q-93 -170 -203 -306h-108zM430 1044q133 192 178 306h140q-85 -155 -207 -306h-111z" />
<glyph unicode="&#x2000;" horiz-adv-x="882" />
<glyph unicode="&#x2001;" horiz-adv-x="1765" />
<glyph unicode="&#x2002;" horiz-adv-x="882" />
<glyph unicode="&#x2003;" horiz-adv-x="1765" />
<glyph unicode="&#x2004;" horiz-adv-x="588" />
<glyph unicode="&#x2005;" horiz-adv-x="441" />
<glyph unicode="&#x2006;" horiz-adv-x="294" />
<glyph unicode="&#x2007;" horiz-adv-x="294" />
<glyph unicode="&#x2008;" horiz-adv-x="220" />
<glyph unicode="&#x2009;" horiz-adv-x="353" />
<glyph unicode="&#x200a;" horiz-adv-x="98" />
<glyph unicode="&#x2010;" horiz-adv-x="729" d="M125 455v110h475v-110h-475z" />
<glyph unicode="&#x2011;" horiz-adv-x="729" d="M125 455v110h475v-110h-475z" />
<glyph unicode="&#x2012;" horiz-adv-x="729" d="M125 455v110h475v-110h-475z" />
<glyph unicode="&#x2013;" horiz-adv-x="1030" d="M63 465v92h900v-92h-900z" />
<glyph unicode="&#x2014;" horiz-adv-x="1812" d="M63 465v92h1690v-92h-1690z" />
<glyph unicode="&#x2018;" horiz-adv-x="399" d="M121 893l63 477h95l-41 -477h-117z" />
<glyph unicode="&#x2019;" horiz-adv-x="413" d="M121 893l41 477h117l-64 -477h-94z" />
<glyph unicode="&#x201a;" horiz-adv-x="399" d="M121 -281l41 478h117l-64 -478h-94z" />
<glyph unicode="&#x201c;" horiz-adv-x="647" d="M121 893l63 477h95l-41 -477h-117zM358 893l64 477h94l-41 -477h-117z" />
<glyph unicode="&#x201d;" horiz-adv-x="616" d="M121 893l41 477h117l-64 -477h-94zM358 893l41 477h117l-63 -477h-95z" />
<glyph unicode="&#x201e;" horiz-adv-x="641" d="M121 -281l41 478h117l-64 -478h-94zM358 -281l41 478h117l-63 -478h-95z" />
<glyph unicode="&#x2020;" horiz-adv-x="1011" d="M100 780v121l349 -16l-9 426h129l-10 -426l348 16v-121l-348 19l12 -174l-16 -992h-102l-17 992l13 174z" />
<glyph unicode="&#x2021;" horiz-adv-x="1007" d="M80 274v113l356 -8h2l-2 422l-356 -6v110l356 -6l-4 412h123l-6 -412l356 6v-110l-356 6l-2 -422h2l356 8v-113l-356 5l6 -441h-123l4 441z" />
<glyph unicode="&#x2022;" horiz-adv-x="788" d="M215 522q0 71 53.5 121.5t128.5 50.5t129 -51t54 -121q0 -72 -54 -123t-129 -51t-128.5 51t-53.5 123z" />
<glyph unicode="&#x2026;" horiz-adv-x="1439" d="M152 53q0 33 21.5 55.5t55.5 22.5t55 -22.5t21 -55.5q0 -29 -22.5 -51t-53.5 -22q-34 0 -55.5 21.5t-21.5 51.5zM627 53q0 33 21.5 55.5t56.5 22.5q34 0 54.5 -22.5t20.5 -55.5q0 -29 -22 -51t-53 -22q-34 0 -56 21.5t-22 51.5zM1118 53q0 33 21.5 55.5t56.5 22.5 q34 0 55 -22.5t21 -55.5q0 -29 -22.5 -51t-53.5 -22q-34 0 -56 21.5t-22 51.5z" />
<glyph unicode="&#x202f;" horiz-adv-x="353" />
<glyph unicode="&#x2030;" horiz-adv-x="2287" d="M51 999q0 161 83 249t224 93q149 5 231.5 -75.5t82.5 -241.5q0 -165 -82.5 -255t-231.5 -93q-146 -2 -226.5 79t-80.5 244zM162 1006q0 -115 50.5 -172.5t141.5 -57.5q101 0 155 62.5t54 181.5q0 116 -53 171t-152 52q-93 -2 -144.5 -62.5t-51.5 -174.5zM358 2l691 1282 h122l-688 -1282h-125zM870 301q0 161 83 249t225 93q149 5 231 -75.5t82 -241.5q0 -165 -82 -255.5t-231 -93.5q-146 -2 -227 79.5t-81 244.5zM981 307q0 -114 50.5 -171.5t142.5 -57.5q100 0 154 62.5t54 181.5q0 116 -52.5 171t-151.5 52q-93 -2 -145 -63t-52 -175z M1608 301q0 161 83 249t224 93q149 5 231 -75.5t82 -241.5q0 -165 -82 -255.5t-231 -93.5q-146 -2 -226.5 79t-80.5 245zM1718 307q0 -114 50.5 -171.5t142.5 -57.5q101 0 155 62.5t54 181.5q0 116 -53 171t-152 52q-93 -2 -145 -63t-52 -175z" />
<glyph unicode="&#x2039;" horiz-adv-x="669" d="M92 489l334 359h123l-293 -359l293 -356h-123z" />
<glyph unicode="&#x203a;" horiz-adv-x="663" d="M92 133l293 356l-293 359h144l333 -359l-333 -356h-144z" />
<glyph unicode="&#x205f;" horiz-adv-x="441" />
<glyph unicode="&#x20ac;" horiz-adv-x="1142" d="M39 496v79h154q-3 37 -3 76q0 9 5 72h-156v82h166q44 216 199 349t382 130q71 0 125 -4t88 -9.5t111 -19.5l-20 -96q-152 44 -294.5 40.5t-234.5 -56.5q-186 -104 -235 -334h653v-82h-666q-2 -27 -2 -78q0 -47 2 -70h666v-79h-657q41 -249 231 -367q164 -103 545 -14 l18 -88q-197 -62 -414 -43q-213 18 -339 158.5t-160 353.5h-164z" />
<glyph unicode="&#x2122;" horiz-adv-x="1153" d="M82 1219v43h356v-43h-153v-457h-52v457h-151zM442 762l56 500h49l192 -433h2l191 433h53l45 -500h-43l-41 430l-190 -430h-37l-189 424l-43 -424h-45z" />
<glyph unicode="&#x25fc;" horiz-adv-x="942" d="M0 0v942h942v-942h-942z" />
</font>
</defs>
</svg>
